<?xml version="1.0" encoding="UTF-8"?>
<svg version="1.1" xmlns="http://www.w3.org/2000/svg" width="195" height="193">
<path d="M0 0 C5.24241155 2.90323851 10.08750211 6.19141374 11.99512291 12.06289864 C12.35350163 15.70964519 12.36223537 19.21054052 12.2487793 22.87329102 C12.245671 24.25390879 12.2474289 25.63454471 12.25364685 27.01515198 C12.25678581 30.73926101 12.19242352 34.45942229 12.11533332 38.18261838 C12.04626504 42.08214517 12.04008399 45.9817766 12.02705383 49.88182068 C11.99295113 57.25599249 11.90280906 64.62835664 11.79220945 72.00173467 C11.66898066 80.40055988 11.60870906 88.7994744 11.55355966 97.1989795 C11.43877916 114.46702957 11.2454751 131.73332328 11 149 C11.66 149 12.32 149 13 149 C12.99815641 148.38192915 12.99631283 147.7638583 12.99441338 147.12705803 C12.95021846 132.07856484 12.9171357 117.03009161 12.89637566 101.98155022 C12.88606906 94.70414777 12.87202053 87.42678868 12.84912109 80.14941406 C12.82916832 73.80544859 12.81627908 67.46151452 12.81182301 61.11751854 C12.80921882 57.75933514 12.80311074 54.40124158 12.78853989 51.04308701 C12.77403853 47.29152838 12.77202152 43.54015633 12.77294922 39.78857422 C12.76575867 38.67870651 12.75856812 37.56883881 12.75115967 36.42533875 C12.77728004 26.67425886 12.77728004 26.67425886 15 22 C17.64453125 19.48046875 17.64453125 19.48046875 20.8125 17.1875 C21.85019531 16.41792969 22.88789062 15.64835937 23.95703125 14.85546875 C28.60447424 12.02166205 28.60447424 12.02166205 32 12 C34.6484375 13.44140625 34.6484375 13.44140625 37.375 15.5625 C38.26960938 16.24441406 39.16421875 16.92632813 40.0859375 17.62890625 C41.04757813 18.41136719 42.00921875 19.19382812 43 20 C43.88313118 20.50666954 43.88313118 20.50666954 44.78410339 21.02357483 C48.22262491 23.26284598 49.77960247 24.97071101 50.65313721 29.05024719 C50.90780551 32.9768388 50.9446766 36.87316538 50.90234375 40.8046875 C50.91173539 42.2534509 50.92419726 43.70219736 50.93959045 45.15090942 C50.97174894 48.94883304 50.96239985 52.74554635 50.94421387 56.54351807 C50.93303659 60.4249789 50.96137785 64.30613301 50.98632812 68.1875 C51.02941958 75.79191326 51.02863514 83.39548253 51 91 C52.77161093 91.06761157 54.54396163 91.11604223 56.31640625 91.15625 C57.79669312 91.19975586 57.79669312 91.19975586 59.30688477 91.24414062 C62.29704039 91.23406064 62.29704039 91.23406064 64.9375 88.5 C65.618125 87.675 66.29875 86.85 67 86 C68.32 86 69.64 86 71 86 C70.67 87.32 70.34 88.64 70 90 C72.31 90.66 74.62 91.32 77 92 C77.33 93.65 77.66 95.3 78 97 C75.69 97 73.38 97 71 97 C71.639375 97.680625 72.27875 98.36125 72.9375 99.0625 C75.3258493 102.46408839 75.67877153 104.90433701 76 109 C74.68 109 73.36 109 72 109 C71.34 107.68 70.68 106.36 70 105 C69.91051442 109.47427924 70.14256349 113.60563789 71 118 C72.11375 117.2265625 72.11375 117.2265625 73.25 116.4375 C76 115 76 115 78.3125 115.3125 C78.869375 115.539375 79.42625 115.76625 80 116 C80 116.66 80 117.32 80 118 C81.65 118 83.3 118 85 118 C86.125 121.75 86.125 121.75 85 124 C85.28112064 126.00800456 85.61067967 128.01014051 86 130 C84.68 130.33 83.36 130.66 82 131 C82 131.66 82 132.32 82 133 C80.68 133 79.36 133 78 133 C77.58229572 134.98409532 77.27704428 136.99142897 77 139 C76.83886719 139.72703125 76.67773438 140.4540625 76.51171875 141.203125 C76.11365247 144.17663217 76.1570482 146.09877269 77 149 C79.26471351 151.72712286 81.6078474 154.06264895 84.21264648 156.44970703 C89.14428507 160.97651506 93.1424553 165.88243953 96 172 C96 173.32 96 174.64 96 176 C95.34 176 94.68 176 94 176 C94 175.34 94 174.68 94 174 C93.01 173.67 92.02 173.34 91 173 C91 172.34 91 171.68 91 171 C90.34 171 89.68 171 89 171 C87.375 169.5 87.375 169.5 86 168 C86 168.99 86 169.98 86 171 C84.02 171 82.04 171 80 171 C79.67 170.34 79.34 169.68 79 169 C76.08823576 167.75031578 73.02756216 166.92812151 70 166 C68.9275 165.608125 67.855 165.21625 66.75 164.8125 C59.55234477 163.25300803 52.18433972 163.4857097 45 165 C43.06486402 165.19217902 41.12693862 165.35765588 39.1875 165.5 C35.63002142 165.77533311 32.09857006 166.08519777 28.5625 166.5625 C25.65065795 166.92009464 22.92550794 167.09142212 20 167 C20 166.01 20 165.02 20 164 C25.32717273 161.89132746 30.72413955 160.09193186 36.1875 158.375 C36.87650391 158.15690674 37.56550781 157.93881348 38.27539062 157.71411133 C48.99632556 154.37614357 62.45692535 152.65450481 73.1953125 157 C76.18035242 158.65404809 78.52605896 160.65292773 81 163 C75.08059753 156.55829731 69.61944039 154.2768034 61.0234375 153.76171875 C49.16932119 153.47908023 38.46437994 155.10291692 27 158 C25.84250244 158.28810547 25.84250244 158.28810547 24.66162109 158.58203125 C20.31867808 159.66182674 20.31867808 159.66182674 15.9855957 160.78027344 C13.22226334 161.50111122 10.87245955 162 8 162 C7.67 162.66 7.34 163.32 7 164 C4.9825466 164.48697151 2.96049701 164.95829725 0.92578125 165.3671875 C-2.56623552 166.12247017 -5.99144473 167.05731011 -9.4375 168 C-18.66933527 170.49496734 -27.84746986 172.1846036 -37.3125 173.53515625 C-39.96064787 173.86022844 -39.96064787 173.86022844 -42 175 C-44.39780052 174.96230785 -46.79463136 174.84576476 -49.1875 174.6875 C-50.48042969 174.60886719 -51.77335937 174.53023437 -53.10546875 174.44921875 C-56.99720952 174.00032187 -60.28289063 173.18118261 -64 172 C-64 171.34 -64 170.68 -64 170 C-65.65 170 -67.3 170 -69 170 C-69 169.34 -69 168.68 -69 168 C-69.680625 167.835 -70.36125 167.67 -71.0625 167.5 C-74.808485 165.5871566 -76.81704732 163.00481781 -79.44921875 159.77734375 C-80.89338958 157.89500097 -80.89338958 157.89500097 -83 157 C-86.72887685 150.77390562 -88.58887879 145.25111916 -88.078125 137.99609375 C-87.83653098 135.92539503 -87.83653098 135.92539503 -89 134 C-88.505 133.01 -88.505 133.01 -88 132 C-86.25135713 122.22291653 -85.78882309 112.65420828 -86.07397461 102.74072266 C-86.16602915 98.33884181 -86.09117405 95.01080647 -84 91 C-82 92.375 -82 92.375 -80 94 C-80 94.66 -80 95.32 -80 96 C-77.36 96 -74.72 96 -72 96 C-72.66 94.68 -73.32 93.36 -74 92 C-70.29706315 91.66336938 -68.60465619 91.52263985 -65.625 93.875 C-64 96 -64 96 -64 98 C-62.6696875 97.690625 -62.6696875 97.690625 -61.3125 97.375 C-57.7747289 96.97449761 -56.13367033 97.43316484 -53 99 C-52.875 101.875 -52.875 101.875 -53 105 C-53.66 105.66 -54.32 106.32 -55 107 C-54.649375 108.0725 -54.29875 109.145 -53.9375 110.25 C-52.76923077 114.92307692 -52.76923077 114.92307692 -54 118 C-55.65 118 -57.3 118 -59 118 C-60.94679922 123.47621693 -60.94679922 123.47621693 -60 129 C-61.9375 129.5625 -61.9375 129.5625 -64 130 C-66.25781973 127.74218027 -65.84399639 123.04961899 -66 120 C-65.5625 116.4375 -65.5625 116.4375 -65 114 C-65.33 114 -65.66 114 -66 114 C-66 118.62 -66 123.24 -66 128 C-66.33 128 -66.66 128 -67 128 C-67.78773917 131.53501458 -68.17495802 134.90249788 -68.31640625 138.51953125 C-68.35830078 139.54111328 -68.40019531 140.56269531 -68.44335938 141.61523438 C-68.48267578 142.67033203 -68.52199219 143.72542969 -68.5625 144.8125 C-68.60568359 145.88693359 -68.64886719 146.96136719 -68.69335938 148.06835938 C-68.79910902 150.71210051 -68.90002703 153.35603412 -69 156 C-62.73 157.32 -56.46 158.64 -50 160 C-50.11045654 157.93842651 -50.11045654 157.93842651 -50.22314453 155.83520508 C-51.18178844 136.03013503 -51.1114338 116.24675965 -50.92285156 96.42456055 C-50.87834386 91.58974366 -50.86315743 86.75525452 -50.85362053 81.92026043 C-50.84078786 78.16171935 -50.80614856 74.40360694 -50.76550674 70.64527321 C-50.75006843 68.86037205 -50.74291843 67.07537829 -50.74441147 65.290411 C-50.74459057 62.81474378 -50.71374599 60.34129365 -50.67529297 57.8659668 C-50.68234756 57.13932831 -50.68940216 56.41268982 -50.69667053 55.66403198 C-50.59959769 51.74176922 -50.12374101 50.14713139 -47.56289673 47.10221863 C-46.71714081 46.40848648 -45.87138489 45.71475433 -45 45 C-44.44505859 44.5045166 -43.89011719 44.0090332 -43.31835938 43.49853516 C-41.72452153 42.19127147 -40.1165904 40.90401932 -38.5 39.625 C-37.94441406 39.16222656 -37.38882813 38.69945312 -36.81640625 38.22265625 C-34.37302513 36.29669701 -32.68093909 35.01713054 -29.515625 34.9375 C-26.14254595 36.3621545 -23.2206369 38.26551402 -20.25 40.375 C-19.66089844 40.77460937 -19.07179688 41.17421875 -18.46484375 41.5859375 C-14.12767701 44.61696897 -14.12767701 44.61696897 -13 48 C-10.38892315 42.06290859 -10.70451219 36.16942178 -10.75 29.8125 C-10.74226563 28.72001953 -10.73453125 27.62753906 -10.7265625 26.50195312 C-10.72914062 25.45587891 -10.73171875 24.40980469 -10.734375 23.33203125 C-10.73775879 21.90467651 -10.73775879 21.90467651 -10.74121094 20.44848633 C-10.83553858 17.74383866 -10.83553858 17.74383866 -13 15 C-15.31459868 16.81817001 -15.95377187 17.75615543 -16.51171875 20.69921875 C-16.56972656 21.68535156 -16.62773438 22.67148437 -16.6875 23.6875 C-16.75324219 24.68136719 -16.81898437 25.67523438 -16.88671875 26.69921875 C-16.92410156 27.45847656 -16.96148437 28.21773437 -17 29 C-18.65 28.67 -20.3 28.34 -22 28 C-23.79321797 21.26853564 -24.2158855 16.6476565 -22 10 C-21.34 10 -20.68 10 -20 10 C-20 9.34 -20 8.68 -20 8 C-18.11632409 6.57191082 -16.1661573 5.23078609 -14.1875 3.9375 C-13.10855469 3.22464844 -12.02960938 2.51179687 -10.91796875 1.77734375 C-6.78247404 -0.74159881 -4.61081718 -1.36976738 0 0 Z M-11 11 C-10 13 -10 13 -10 13 Z M38 31 C36.90083958 43.64007219 36.87002058 56.22261346 36.90234375 68.90234375 C36.90421301 71.07808906 36.90563451 73.2538348 36.90663147 75.42958069 C36.91041666 81.10608113 36.92021195 86.78255524 36.93133545 92.45904541 C36.94163638 98.27152145 36.94614754 104.08400181 36.95117188 109.89648438 C36.96183852 121.26433437 36.97886583 132.63216498 37 144 C40.465 143.505 40.465 143.505 44 143 C44.06957391 129.57828318 44.12284897 116.15660941 44.15543652 102.73474884 C44.17107852 96.50213746 44.19229036 90.26964965 44.22631836 84.03710938 C44.25896358 78.02004281 44.27686404 72.00309496 44.28463173 65.98594666 C44.29016593 63.69268424 44.30097286 61.39942818 44.31719017 59.10621643 C44.33903264 55.88902856 44.34196402 52.67232847 44.34057617 49.45507812 C44.351362 48.51136353 44.36214783 47.56764893 44.3732605 46.59533691 C44.34589368 40.71538066 43.38061059 36.3876886 41 31 C40.01 31 39.02 31 38 31 Z M-40 53 C-42.16878191 53.82164027 -42.16878191 53.82164027 -44 56 C-44.62483754 59.2823545 -44.50391997 62.55600196 -44.45410156 65.88745117 C-44.45468567 66.90226059 -44.45526978 67.91707001 -44.45587158 68.96263123 C-44.45308077 72.32308948 -44.42194078 75.6826651 -44.390625 79.04296875 C-44.38316618 81.37038183 -44.37747156 83.69780118 -44.37347412 86.02522278 C-44.35818964 92.15580536 -44.31888314 98.28600985 -44.2746582 104.41644287 C-44.23376641 110.67015467 -44.21547611 116.92392747 -44.1953125 123.17773438 C-44.15239198 135.45198918 -44.0841063 147.72596317 -44 160 C-40.535 159.505 -40.535 159.505 -37 159 C-36.97667985 147.95021547 -36.95898572 136.90043693 -36.94818783 125.85063267 C-36.9430016 120.7180398 -36.93598275 115.58546394 -36.92456055 110.45288086 C-36.91357849 105.48616815 -36.90769122 100.51947166 -36.90512276 95.55274773 C-36.90329579 93.67164798 -36.89972927 91.79054897 -36.89426994 89.90945625 C-36.86866505 80.70872941 -36.92157958 71.52279949 -37.38110352 62.33178711 C-37.41157996 61.61718858 -37.44205641 60.90259005 -37.47345638 60.16633701 C-37.62716404 56.13844653 -37.62716404 56.13844653 -40 53 Z M52 98 C52.66 99.32 53.32 100.64 54 102 C54.66 100.68 55.32 99.36 56 98 C54.68 98 53.36 98 52 98 Z M51 102 C49.33422375 105.33155251 49.87992144 109.06536059 49.90234375 112.7265625 C49.9037587 113.58937836 49.90517365 114.45219421 49.90663147 115.34115601 C49.91223812 118.1024723 49.92479173 120.86370812 49.9375 123.625 C49.94251414 125.4947905 49.9470772 127.36458226 49.95117188 129.234375 C49.96220971 133.82294777 49.9794788 138.41146023 50 143 C51.89492006 143.33848652 53.79098466 143.67056911 55.6875 144 C57.27111328 144.2784375 57.27111328 144.2784375 58.88671875 144.5625 C61.64904062 144.95068074 64.21742043 145.08259976 67 145 C67.37621274 131.29813909 66.7865376 118.43509201 64 105 C63.34 105 62.68 105 62 105 C62 108.96 62 112.92 62 117 C60.68 116.67 59.36 116.34 58 116 C57.67 112.7 57.34 109.4 57 106 C56.34 107.32 55.68 108.64 55 110 C54.01 110.495 54.01 110.495 53 111 C52.67 108.03 52.34 105.06 52 102 C51.67 102 51.34 102 51 102 Z M-57 104 C-56 106 -56 106 -56 106 Z M-71 109 C-70 111 -70 111 -70 111 Z M-74.6875 112.5 C-76.65798148 116.25329805 -75.75538187 118.87973524 -75 123 C-74.01 123 -73.02 123 -72 123 C-71.01751476 118.9472484 -70.91840426 115.16138263 -71 111 C-73.12716339 110.77854539 -73.12716339 110.77854539 -74.6875 112.5 Z M71 119 C72 121 72 121 72 121 Z M83 164 C83 164.66 83 165.32 83 166 C83.66 165.67 84.32 165.34 85 165 C84.34 164.67 83.68 164.34 83 164 Z " fill="#273957" transform="translate(99,13)"/>
<path d="M0 0 C0 48.18 0 96.36 0 146 C-1.98 146 -3.96 146 -6 146 C-6 110.03 -6 74.06 -6 37 C-7.32 36.34 -8.64 35.68 -10 35 C-12.32025853 33.48399053 -14.59740542 31.91342527 -16.87890625 30.33984375 C-19.04891168 28.85075698 -19.04891168 28.85075698 -22 28 C-28.25902341 30.04051611 -34.2318654 34.67169873 -38 40 C-40.89322069 48.11476878 -40.00259466 57.19746849 -39.78125 65.671875 C-39.77383616 68.16578085 -39.77349881 70.65971685 -39.77990723 73.15362549 C-39.77783911 79.68541124 -39.68029086 86.21233909 -39.56219482 92.74291992 C-39.449847 99.41922703 -39.44611616 106.09635374 -39.42578125 112.7734375 C-39.37262215 125.8505878 -39.22159451 138.92467382 -39 152 C-41.41536261 151.86976211 -43.82978459 151.7313286 -46.24438477 151.58813477 C-46.92554604 151.55225502 -47.60670731 151.51637527 -48.30850983 151.47940826 C-53.30456714 151.17393727 -56.64211977 150.42988112 -60.9375 147.9375 C-61.91589844 147.38964844 -62.89429687 146.84179688 -63.90234375 146.27734375 C-64.59457031 145.85582031 -65.28679687 145.43429688 -66 145 C-66 144.34 -66 143.68 -66 143 C-66.99 142.67 -67.98 142.34 -69 142 C-70.82421875 139.71484375 -70.82421875 139.71484375 -72.6875 136.9375 C-73.62142578 135.55884766 -73.62142578 135.55884766 -74.57421875 134.15234375 C-75.27998047 133.08693359 -75.27998047 133.08693359 -76 132 C-76.33 134.31 -76.66 136.62 -77 139 C-79 137 -79 137 -79.16015625 134.6875 C-79.12792969 133.800625 -79.09570312 132.91375 -79.0625 132 C-78.85490002 128.35770507 -78.85490002 128.35770507 -80 125 C-79.505 124.01 -79.505 124.01 -79 123 C-77.25135713 113.22291653 -76.78882309 103.65420828 -77.07397461 93.74072266 C-77.16602915 89.33884181 -77.09117405 86.01080647 -75 82 C-73 83.375 -73 83.375 -71 85 C-71 85.66 -71 86.32 -71 87 C-68.36 87 -65.72 87 -63 87 C-63.66 85.68 -64.32 84.36 -65 83 C-61.29706315 82.66336938 -59.60465619 82.52263985 -56.625 84.875 C-55 87 -55 87 -55 89 C-53.6696875 88.690625 -53.6696875 88.690625 -52.3125 88.375 C-48.7747289 87.97449761 -47.13367033 88.43316484 -44 90 C-43.875 92.875 -43.875 92.875 -44 96 C-44.66 96.66 -45.32 97.32 -46 98 C-45.649375 99.0725 -45.29875 100.145 -44.9375 101.25 C-43.76923077 105.92307692 -43.76923077 105.92307692 -45 109 C-46.65 109 -48.3 109 -50 109 C-51.94679922 114.47621693 -51.94679922 114.47621693 -51 120 C-52.9375 120.5625 -52.9375 120.5625 -55 121 C-57.25781973 118.74218027 -56.84399639 114.04961899 -57 111 C-56.5625 107.4375 -56.5625 107.4375 -56 105 C-56.33 105 -56.66 105 -57 105 C-57 109.62 -57 114.24 -57 119 C-57.33 119 -57.66 119 -58 119 C-58.78773917 122.53501458 -59.17495802 125.90249788 -59.31640625 129.51953125 C-59.35830078 130.54111328 -59.40019531 131.56269531 -59.44335938 132.61523438 C-59.48267578 133.67033203 -59.52199219 134.72542969 -59.5625 135.8125 C-59.60568359 136.88693359 -59.64886719 137.96136719 -59.69335938 139.06835938 C-59.79910902 141.71210051 -59.90002703 144.35603412 -60 147 C-53.73 148.32 -47.46 149.64 -41 151 C-41.11045654 148.93842651 -41.11045654 148.93842651 -41.22314453 146.83520508 C-42.18178844 127.03013503 -42.1114338 107.24675965 -41.92285156 87.42456055 C-41.87834386 82.58974366 -41.86315743 77.75525452 -41.85362053 72.92026043 C-41.84078786 69.16171935 -41.80614856 65.40360694 -41.76550674 61.64527321 C-41.75006843 59.86037205 -41.74291843 58.07537829 -41.74441147 56.290411 C-41.74459057 53.81474378 -41.71374599 51.34129365 -41.67529297 48.8659668 C-41.68234756 48.13932831 -41.68940216 47.41268982 -41.69667053 46.66403198 C-41.59959769 42.74176922 -41.12374101 41.14713139 -38.56289673 38.10221863 C-37.71714081 37.40848648 -36.87138489 36.71475433 -36 36 C-35.44505859 35.5045166 -34.89011719 35.0090332 -34.31835938 34.49853516 C-32.72452153 33.19127147 -31.1165904 31.90401932 -29.5 30.625 C-28.94441406 30.16222656 -28.38882813 29.69945313 -27.81640625 29.22265625 C-25.37302513 27.29669701 -23.68093909 26.01713054 -20.515625 25.9375 C-17.14254595 27.3621545 -14.2206369 29.26551402 -11.25 31.375 C-10.66089844 31.77460937 -10.07179688 32.17421875 -9.46484375 32.5859375 C-5.12767701 35.61696897 -5.12767701 35.61696897 -4 39 C-1.38892315 33.06290859 -1.70451219 27.16942178 -1.75 20.8125 C-1.74226563 19.72001953 -1.73453125 18.62753906 -1.7265625 17.50195312 C-1.72914062 16.45587891 -1.73171875 15.40980469 -1.734375 14.33203125 C-1.73775879 12.90467651 -1.73775879 12.90467651 -1.74121094 11.44848633 C-1.83553858 8.74383866 -1.83553858 8.74383866 -4 6 C-6.31459868 7.81817001 -6.95377187 8.75615543 -7.51171875 11.69921875 C-7.56972656 12.68535156 -7.62773438 13.67148437 -7.6875 14.6875 C-7.75324219 15.68136719 -7.81898437 16.67523438 -7.88671875 17.69921875 C-7.92410156 18.45847656 -7.96148437 19.21773437 -8 20 C-9.65 19.67 -11.3 19.34 -13 19 C-14.79321797 12.26853564 -15.2158855 7.6476565 -13 1 C-12.01 1.495 -12.01 1.495 -11 2 C-11.33 7.28 -11.66 12.56 -12 18 C-11.34 18 -10.68 18 -10 18 C-10.185625 16.700625 -10.37125 15.40125 -10.5625 14.0625 C-10.60704964 10.55421583 -10.18113653 9.23935898 -8.03125 6.3984375 C-1.6125 0 -1.6125 0 0 0 Z M-2 2 C-1 4 -1 4 -1 4 Z M-48 95 C-47 97 -47 97 -47 97 Z M-62 100 C-61 102 -61 102 -61 102 Z M-65.6875 103.5 C-67.65798148 107.25329805 -66.75538187 109.87973524 -66 114 C-65.01 114 -64.02 114 -63 114 C-62.01751476 109.9472484 -61.91840426 106.16138263 -62 102 C-64.12716339 101.77854539 -64.12716339 101.77854539 -65.6875 103.5 Z " fill="#CBD7C5" transform="translate(90,22)"/>
<path d="M0 0 C5.24241155 2.90323851 10.08750211 6.19141374 11.99512291 12.06289864 C12.35350163 15.70964519 12.36223537 19.21054052 12.2487793 22.87329102 C12.245671 24.25390879 12.2474289 25.63454471 12.25364685 27.01515198 C12.25678581 30.73926101 12.19242352 34.45942229 12.11533332 38.18261838 C12.04626504 42.08214517 12.04008399 45.9817766 12.02705383 49.88182068 C11.99295113 57.25599249 11.90280906 64.62835664 11.79220945 72.00173467 C11.66898066 80.40055988 11.60870906 88.7994744 11.55355966 97.1989795 C11.43877916 114.46702957 11.2454751 131.73332328 11 149 C11.66 149 12.32 149 13 149 C12.99815641 148.38192915 12.99631283 147.7638583 12.99441338 147.12705803 C12.95021846 132.07856484 12.9171357 117.03009161 12.89637566 101.98155022 C12.88606906 94.70414777 12.87202053 87.42678868 12.84912109 80.14941406 C12.82916832 73.80544859 12.81627908 67.46151452 12.81182301 61.11751854 C12.80921882 57.75933514 12.80311074 54.40124158 12.78853989 51.04308701 C12.77403853 47.29152838 12.77202152 43.54015633 12.77294922 39.78857422 C12.76575867 38.67870651 12.75856812 37.56883881 12.75115967 36.42533875 C12.77728004 26.67425886 12.77728004 26.67425886 15 22 C17.64453125 19.48046875 17.64453125 19.48046875 20.8125 17.1875 C21.85019531 16.41792969 22.88789062 15.64835937 23.95703125 14.85546875 C28.60447424 12.02166205 28.60447424 12.02166205 32 12 C34.6484375 13.44140625 34.6484375 13.44140625 37.375 15.5625 C38.26960938 16.24441406 39.16421875 16.92632813 40.0859375 17.62890625 C41.04757813 18.41136719 42.00921875 19.19382812 43 20 C43.88313118 20.50666954 43.88313118 20.50666954 44.78410339 21.02357483 C48.22262491 23.26284598 49.77960247 24.97071101 50.65313721 29.05024719 C50.90780551 32.9768388 50.9446766 36.87316538 50.90234375 40.8046875 C50.91173539 42.2534509 50.92419726 43.70219736 50.93959045 45.15090942 C50.97174894 48.94883304 50.96239985 52.74554635 50.94421387 56.54351807 C50.93303659 60.4249789 50.96137785 64.30613301 50.98632812 68.1875 C51.02941958 75.79191326 51.02863514 83.39548253 51 91 C52.77161093 91.06761157 54.54396163 91.11604223 56.31640625 91.15625 C57.30326416 91.18525391 58.29012207 91.21425781 59.30688477 91.24414062 C62.29704039 91.23406064 62.29704039 91.23406064 64.9375 88.5 C65.618125 87.675 66.29875 86.85 67 86 C68.32 86 69.64 86 71 86 C70.505 87.98 70.505 87.98 70 90 C72.31 90.66 74.62 91.32 77 92 C77.33 93.65 77.66 95.3 78 97 C75.69 97 73.38 97 71 97 C71.639375 97.680625 72.27875 98.36125 72.9375 99.0625 C75.3258493 102.46408839 75.67877153 104.90433701 76 109 C74.68 109 73.36 109 72 109 C71.34 107.68 70.68 106.36 70 105 C69.91051442 109.47427924 70.14256349 113.60563789 71 118 C71.7425 117.484375 72.485 116.96875 73.25 116.4375 C76 115 76 115 78.3125 115.3125 C78.869375 115.539375 79.42625 115.76625 80 116 C80 116.66 80 117.32 80 118 C81.65 118 83.3 118 85 118 C86.125 121.75 86.125 121.75 85 124 C85.28112064 126.00800456 85.61067967 128.01014051 86 130 C84.68 130.33 83.36 130.66 82 131 C82 131.66 82 132.32 82 133 C80.68 133 79.36 133 78 133 C76.64174804 139.45169682 75.33191726 146.39362073 79 152.125 C79.99 153.053125 79.99 153.053125 81 154 C78.10415417 152.70186222 76.01842387 151.46696251 74 149 C73.48828125 146.73828125 73.48828125 146.73828125 73.3125 144.3125 C73.24675781 143.50425781 73.18101562 142.69601563 73.11328125 141.86328125 C73.07589844 141.24839844 73.03851563 140.63351563 73 140 C72.67 140 72.34 140 72 140 C71.86722656 138.91460937 71.73445313 137.82921875 71.59765625 136.7109375 C71.41933746 135.26561678 71.24094831 133.82030474 71.0625 132.375 C70.97548828 131.66214844 70.88847656 130.94929687 70.79882812 130.21484375 C70.71181641 129.51230469 70.62480469 128.80976563 70.53515625 128.0859375 C70.456604 127.4470459 70.37805176 126.8081543 70.29711914 126.14990234 C69.92053085 123.42497507 69.45223312 120.71339871 69 118 C68.67 127.57 68.34 137.14 68 147 C56.66941015 145.86694102 56.66941015 145.86694102 52.9375 145 C52.20402344 144.835 51.47054687 144.67 50.71484375 144.5 C49 144 49 144 48 143 C47.91164048 141.49726913 47.89309995 139.99037489 47.90234375 138.4850769 C47.90717018 137.02150505 47.90717018 137.02150505 47.91209412 135.52836609 C47.92467003 133.90920036 47.92467003 133.90920036 47.9375 132.25732422 C47.94694898 129.91413471 47.95613226 127.57094413 47.96508789 125.22775269 C47.97138214 123.97789455 47.97767639 122.72803642 47.98416138 121.4403038 C48.01103209 114.84823578 48.0013645 108.25616624 47.99609375 101.6640625 C47.98938592 93.26275993 47.99413461 84.86207607 48.05126953 76.4609375 C48.09723863 69.68373203 48.09608602 62.90778919 48.06713867 56.13049698 C48.06405557 53.54612306 48.07697964 50.96167866 48.10620117 48.37746811 C48.14487523 44.75658409 48.12769261 41.13991845 48.09765625 37.51904297 C48.12223404 36.45174454 48.14681183 35.38444611 48.1721344 34.2848053 C48.08736657 29.93427993 48.02347181 27.13455192 45.03512573 23.82187271 C42.76283007 22.03998971 40.46161308 20.50503898 38 19 C37.43656387 18.55787611 36.87312775 18.11575222 36.2926178 17.66023064 C33.75990998 15.67489865 32.40262988 14.97159093 29.15536308 15.20071411 C23.59309864 16.60969284 19.66074417 19.62418231 16 24 C14.60987376 28.1493572 14.67152514 32.03609094 14.77294922 36.3828125 C14.76173538 37.60317703 14.75052155 38.82354156 14.7389679 40.08088684 C14.7180731 43.40684485 14.74108351 46.72692141 14.78413153 50.05228806 C14.81866499 53.53438602 14.79639169 57.01612529 14.78030396 60.49829102 C14.75843498 67.08232608 14.78719431 73.66511421 14.834427 80.24897671 C14.88574254 87.74849631 14.88018915 95.24764263 14.87000632 102.74729156 C14.85033855 118.16531165 14.90160707 133.58225378 15 149 C13.35 149.33 11.7 149.66 10 150 C10.0040642 149.28585182 10.0081284 148.57170364 10.01231575 147.83591461 C10.10786132 130.44154256 10.14804568 113.04791959 10.12697029 95.65329742 C10.11810664 87.24120669 10.1278295 78.82991132 10.18164062 70.41796875 C10.22850751 63.08414588 10.24016177 55.75124675 10.2099179 48.41732168 C10.19512873 44.53530742 10.19770999 40.65509169 10.24249649 36.77326965 C10.28414825 33.11484666 10.27850896 29.45946432 10.23747826 25.80106354 C10.22739548 23.82724408 10.26666066 21.85336315 10.30766296 19.87994385 C10.18194243 13.0942438 10.18194243 13.0942438 6.83245468 7.389328 C1.56148305 2.93444996 1.56148305 2.93444996 -5 1.5625 C-10.3446524 2.87675879 -14.74728115 6.66231287 -19 10 C-19.33 9.34 -19.66 8.68 -20 8 C-18.06537998 6.68325862 -16.12720303 5.37174202 -14.1875 4.0625 C-13.10855469 3.33160156 -12.02960938 2.60070312 -10.91796875 1.84765625 C-6.80032422 -0.75963406 -4.63416542 -1.3767036 0 0 Z M52 98 C52.66 99.32 53.32 100.64 54 102 C54.66 100.68 55.32 99.36 56 98 C54.68 98 53.36 98 52 98 Z M51 102 C49.33422375 105.33155251 49.87992144 109.06536059 49.90234375 112.7265625 C49.9037587 113.58937836 49.90517365 114.45219421 49.90663147 115.34115601 C49.91223812 118.1024723 49.92479173 120.86370812 49.9375 123.625 C49.94251414 125.4947905 49.9470772 127.36458226 49.95117188 129.234375 C49.96220971 133.82294777 49.9794788 138.41146023 50 143 C51.89492006 143.33848652 53.79098466 143.67056911 55.6875 144 C57.27111328 144.2784375 57.27111328 144.2784375 58.88671875 144.5625 C61.64904062 144.95068074 64.21742043 145.08259976 67 145 C67.37621274 131.29813909 66.7865376 118.43509201 64 105 C63.34 105 62.68 105 62 105 C62 108.96 62 112.92 62 117 C60.68 116.67 59.36 116.34 58 116 C57.67 112.7 57.34 109.4 57 106 C56.34 107.32 55.68 108.64 55 110 C54.01 110.495 54.01 110.495 53 111 C52.67 108.03 52.34 105.06 52 102 C51.67 102 51.34 102 51 102 Z M71 119 C72 121 72 121 72 121 Z " fill="#C0C8D0" transform="translate(99,13)"/>
<path d="M0 0 C0 48.18 0 96.36 0 146 C-1.98 146 -3.96 146 -6 146 C-6 110.03 -6 74.06 -6 37 C-7.32 36.34 -8.64 35.68 -10 35 C-12.32025853 33.48399053 -14.59740542 31.91342527 -16.87890625 30.33984375 C-19.04891168 28.85075698 -19.04891168 28.85075698 -22 28 C-28.25902341 30.04051611 -34.2318654 34.67169873 -38 40 C-40.89322069 48.11476878 -40.00259466 57.19746849 -39.78125 65.671875 C-39.77383616 68.16578085 -39.77349881 70.65971685 -39.77990723 73.15362549 C-39.77783911 79.68541124 -39.68029086 86.21233909 -39.56219482 92.74291992 C-39.449847 99.41922703 -39.44611616 106.09635374 -39.42578125 112.7734375 C-39.37262215 125.8505878 -39.22159451 138.92467382 -39 152 C-41.31 152 -43.62 152 -46 152 C-46 151.67 -46 151.34 -46 151 C-44.35 151 -42.7 151 -41 151 C-41.03094757 150.43920242 -41.06189514 149.87840485 -41.09378052 149.3006134 C-42.17609826 128.67389437 -42.11928605 108.07212336 -41.92285156 87.42456055 C-41.87834386 82.58974366 -41.86315743 77.75525452 -41.85362053 72.92026043 C-41.84078786 69.16171935 -41.80614856 65.40360694 -41.76550674 61.64527321 C-41.75006843 59.86037205 -41.74291843 58.07537829 -41.74441147 56.290411 C-41.74459057 53.81474378 -41.71374599 51.34129365 -41.67529297 48.8659668 C-41.68234756 48.13932831 -41.68940216 47.41268982 -41.69667053 46.66403198 C-41.59959769 42.74176922 -41.12374101 41.14713139 -38.56289673 38.10221863 C-37.71714081 37.40848648 -36.87138489 36.71475433 -36 36 C-35.44505859 35.5045166 -34.89011719 35.0090332 -34.31835938 34.49853516 C-32.72452153 33.19127147 -31.1165904 31.90401932 -29.5 30.625 C-28.94441406 30.16222656 -28.38882813 29.69945313 -27.81640625 29.22265625 C-25.37302513 27.29669701 -23.68093909 26.01713054 -20.515625 25.9375 C-17.14254595 27.3621545 -14.2206369 29.26551402 -11.25 31.375 C-10.66089844 31.77460937 -10.07179687 32.17421875 -9.46484375 32.5859375 C-5.12767701 35.61696897 -5.12767701 35.61696897 -4 39 C-1.38892315 33.06290859 -1.70451219 27.16942178 -1.75 20.8125 C-1.74226563 19.72001953 -1.73453125 18.62753906 -1.7265625 17.50195312 C-1.72914062 16.45587891 -1.73171875 15.40980469 -1.734375 14.33203125 C-1.73663086 13.38046143 -1.73888672 12.4288916 -1.74121094 11.44848633 C-1.83553858 8.74383866 -1.83553858 8.74383866 -4 6 C-6.31459868 7.81817001 -6.95377187 8.75615543 -7.51171875 11.69921875 C-7.59873047 13.17841797 -7.59873047 13.17841797 -7.6875 14.6875 C-7.75324219 15.68136719 -7.81898437 16.67523438 -7.88671875 17.69921875 C-7.92410156 18.45847656 -7.96148437 19.21773437 -8 20 C-9.65 19.67 -11.3 19.34 -13 19 C-14.79321797 12.26853564 -15.2158855 7.6476565 -13 1 C-12.34 1.33 -11.68 1.66 -11 2 C-11.33 7.28 -11.66 12.56 -12 18 C-11.34 18 -10.68 18 -10 18 C-10.185625 16.700625 -10.37125 15.40125 -10.5625 14.0625 C-10.60704964 10.55421583 -10.18113653 9.23935898 -8.03125 6.3984375 C-1.6125 0 -1.6125 0 0 0 Z M-2 2 C-1 4 -1 4 -1 4 Z " fill="#ECEDED" transform="translate(90,22)"/>
<path d="M0 0 C0.66 0.33 1.32 0.66 2 1 C4.11694547 7.72441501 4.49485886 15.00778321 5 22 C5.33 22 5.66 22 6 22 C6.02578125 22.67546875 6.0515625 23.3509375 6.078125 24.046875 C6.340615 29.59115336 6.340615 29.59115336 8.75 34.4375 C10.95822448 36.03280223 10.95822448 36.03280223 13.3125 37.25 C19.49945277 41.27871343 24.9361314 48.27925597 28 55 C28 56.32 28 57.64 28 59 C27.34 59 26.68 59 26 59 C26 58.34 26 57.68 26 57 C24.515 56.505 24.515 56.505 23 56 C23 55.34 23 54.68 23 54 C22.34 54 21.68 54 21 54 C19.375 52.5 19.375 52.5 18 51 C18 51.99 18 52.98 18 54 C16.02 54 14.04 54 12 54 C11.67 53.34 11.34 52.68 11 52 C8.08823576 50.75031578 5.02756216 49.92812151 2 49 C0.39125 48.4121875 0.39125 48.4121875 -1.25 47.8125 C-8.44765523 46.25300803 -15.81566028 46.4857097 -23 48 C-24.93513598 48.19217902 -26.87306138 48.35765588 -28.8125 48.5 C-32.36997858 48.77533311 -35.90142994 49.08519777 -39.4375 49.5625 C-42.34934205 49.92009464 -45.07449206 50.09142212 -48 50 C-48 49.01 -48 48.02 -48 47 C-42.67282727 44.89132746 -37.27586045 43.09193186 -31.8125 41.375 C-30.77899414 41.04786011 -30.77899414 41.04786011 -29.72460938 40.71411133 C-19.00367444 37.37614357 -5.54307465 35.65450481 5.1953125 40 C8.18035242 41.65404809 10.52605896 43.65292773 13 46 C7.82965874 40.37345215 2.72626989 37.37176085 -4.94042969 36.87402344 C-7.25320874 36.79205415 -9.56078101 36.75949494 -11.875 36.75 C-12.709104 36.74605225 -13.54320801 36.74210449 -14.40258789 36.73803711 C-21.19944691 36.80085705 -27.41242433 37.81536276 -33.99609375 39.44140625 C-36.8416407 39.97055217 -38.32800427 39.99133011 -41 39 C-37.27055523 36.51370349 -33.71403953 36.04726976 -29.375 35.375 C-28.5399292 35.24311279 -27.7048584 35.11122559 -26.84448242 34.9753418 C-18.54050884 33.76468803 -10.37016056 33.71063465 -2 34 C-2 32.68 -2 31.36 -2 30 C-1.34 30 -0.68 30 0 30 C0 20.1 0 10.2 0 0 Z M15 47 C15 47.66 15 48.32 15 49 C15.66 48.67 16.32 48.34 17 48 C16.34 47.67 15.68 47.34 15 47 Z " fill="#283C52" transform="translate(167,130)"/>
<path d="M0 0 C2 1.375 2 1.375 4 3 C4 3.66 4 4.32 4 5 C4.99 5.33 5.98 5.66 7 6 C6.67 7.32 6.34 8.64 6 10 C8.64 10.33 11.28 10.66 14 11 C12.99686938 13.23775292 12.15523165 14.8507388 10.375 16.5625 C8.65438868 18.02978279 8.65438868 18.02978279 9 21 C9 24.66666667 9 28.33333333 9 32 C9.99 32 10.98 32 12 32 C12.33 28.04 12.66 24.08 13 20 C13.33 20 13.66 20 14 20 C14.18834887 26.46664452 14.26263286 31.87758168 12 38 C11.66697728 40.60732424 11.44068853 43.20705248 11.24609375 45.828125 C11 48 11 48 10 50 C9.34 50 8.68 50 8 50 C6.83546618 40.77330896 6.83546618 40.77330896 7.625 37.0625 C7.74875 36.381875 7.8725 35.70125 8 35 C6.66621425 33.1645201 6.66621425 33.1645201 5 32 C4.67 32.66 4.34 33.32 4 34 C2.02 34 0.04 34 -2 34 C-1.67 36.64 -1.34 39.28 -1 42 C-0.34 42 0.32 42 1 42 C1 43.65 1 45.3 1 47 C1.66 47 2.32 47 3 47 C3 44.69 3 42.38 3 40 C3.99 40.33 4.98 40.66 6 41 C6.33 46.94 6.66 52.88 7 59 C2.89396582 55.71517265 1.28677845 54.33284339 -1 50 C-1.33 52.31 -1.66 54.62 -2 57 C-4 55 -4 55 -4.16015625 52.6875 C-4.12792969 51.800625 -4.09570312 50.91375 -4.0625 50 C-3.85490002 46.35770507 -3.85490002 46.35770507 -5 43 C-4.67 42.34 -4.34 41.68 -4 41 C-2.25135713 31.22291653 -1.78882309 21.65420828 -2.07397461 11.74072266 C-2.16602915 7.33884181 -2.09117405 4.01080647 0 0 Z " fill="#F7F9F6" transform="translate(15,104)"/>
<path d="M0 0 C5.24241155 2.90323851 10.08750211 6.19141374 11.99512291 12.06289864 C12.35350163 15.70964519 12.36223537 19.21054052 12.2487793 22.87329102 C12.245671 24.25390879 12.2474289 25.63454471 12.25364685 27.01515198 C12.25678581 30.73926101 12.19242352 34.45942229 12.11533332 38.18261838 C12.04626504 42.08214517 12.04008399 45.9817766 12.02705383 49.88182068 C11.99295113 57.25599249 11.90280906 64.62835664 11.79220945 72.00173467 C11.66898066 80.40055988 11.60870906 88.7994744 11.55355966 97.1989795 C11.43877916 114.46702957 11.2454751 131.73332328 11 149 C11.66 149 12.32 149 13 149 C12.99815641 148.38192915 12.99631283 147.7638583 12.99441338 147.12705803 C12.95021846 132.07856484 12.9171357 117.03009161 12.89637566 101.98155022 C12.88606906 94.70414777 12.87202053 87.42678868 12.84912109 80.14941406 C12.82916832 73.80544859 12.81627908 67.46151452 12.81182301 61.11751854 C12.80921882 57.75933514 12.80311074 54.40124158 12.78853989 51.04308701 C12.77403853 47.29152838 12.77202152 43.54015633 12.77294922 39.78857422 C12.76575867 38.67870651 12.75856812 37.56883881 12.75115967 36.42533875 C12.77728004 26.67425886 12.77728004 26.67425886 15 22 C17.64453125 19.48046875 17.64453125 19.48046875 20.8125 17.1875 C21.85019531 16.41792969 22.88789062 15.64835937 23.95703125 14.85546875 C28.61346858 12.0161777 28.61346858 12.0161777 32 12 C34.68359375 13.4765625 34.68359375 13.4765625 37.4375 15.625 C38.39140625 16.35976563 39.3453125 17.09453125 40.328125 17.8515625 C43.25106514 20.20187986 46.16305392 22.54642501 49 25 C48.34 25.33 47.68 25.66 47 26 C46.41992188 25.54109375 45.83984375 25.0821875 45.2421875 24.609375 C42.84059314 22.72297415 40.42144723 20.86081659 38 19 C37.43152344 18.54109375 36.86304688 18.0821875 36.27734375 17.609375 C33.72802947 15.67869432 32.38576702 14.97278075 29.15536308 15.20071411 C23.59309864 16.60969284 19.66074417 19.62418231 16 24 C14.60987376 28.1493572 14.67152514 32.03609094 14.77294922 36.3828125 C14.76173538 37.60317703 14.75052155 38.82354156 14.7389679 40.08088684 C14.7180731 43.40684485 14.74108351 46.72692141 14.78413153 50.05228806 C14.81866499 53.53438602 14.79639169 57.01612529 14.78030396 60.49829102 C14.75843498 67.08232608 14.78719431 73.66511421 14.834427 80.24897671 C14.88574254 87.74849631 14.88018915 95.24764263 14.87000632 102.74729156 C14.85033855 118.16531165 14.90160707 133.58225378 15 149 C13.35 149.33 11.7 149.66 10 150 C10.0040642 149.28585182 10.0081284 148.57170364 10.01231575 147.83591461 C10.10786132 130.44154256 10.14804568 113.04791959 10.12697029 95.65329742 C10.11810664 87.24120669 10.1278295 78.82991132 10.18164062 70.41796875 C10.22850751 63.08414588 10.24016177 55.75124675 10.2099179 48.41732168 C10.19512873 44.53530742 10.19770999 40.65509169 10.24249649 36.77326965 C10.28414825 33.11484666 10.27850896 29.45946432 10.23747826 25.80106354 C10.22739548 23.82724408 10.26666066 21.85336315 10.30766296 19.87994385 C10.18194243 13.0942438 10.18194243 13.0942438 6.83245468 7.389328 C1.56148305 2.93444996 1.56148305 2.93444996 -5 1.5625 C-10.3446524 2.87675879 -14.74728115 6.66231287 -19 10 C-19.33 9.34 -19.66 8.68 -20 8 C-18.06537998 6.68325862 -16.12720303 5.37174202 -14.1875 4.0625 C-13.10855469 3.33160156 -12.02960938 2.60070312 -10.91796875 1.84765625 C-6.80032422 -0.75963406 -4.63416542 -1.3767036 0 0 Z " fill="#DFE2E3" transform="translate(99,13)"/>
<path d="M0 0 C2.25 2.0625 2.25 2.0625 4 4 C3.67 2.35 3.34 0.7 3 -1 C3.66 -0.67 4.32 -0.34 5 0 C5.40729228 2.32156597 5.74438677 4.6568787 6 7 C4.68 7 3.36 7 2 7 C1.34 5.68 0.68 4.36 0 3 C-0.08948558 7.47427924 0.14256349 11.60563789 1 16 C1.7425 15.484375 2.485 14.96875 3.25 14.4375 C6 13 6 13 8.3125 13.3125 C8.869375 13.539375 9.42625 13.76625 10 14 C10 14.66 10 15.32 10 16 C11.65 16 13.3 16 15 16 C16.125 19.75 16.125 19.75 15 22 C15.28112064 24.00800456 15.61067967 26.01014051 16 28 C14.68 28.33 13.36 28.66 12 29 C12 29.66 12 30.32 12 31 C10.68 31 9.36 31 8 31 C6.64174804 37.45169682 5.33191726 44.39362073 9 50.125 C9.66 50.74375 10.32 51.3625 11 52 C8.10415417 50.70186222 6.01842387 49.46696251 4 47 C3.48828125 44.73828125 3.48828125 44.73828125 3.3125 42.3125 C3.21388672 41.10013672 3.21388672 41.10013672 3.11328125 39.86328125 C3.07589844 39.24839844 3.03851563 38.63351563 3 38 C2.67 38 2.34 38 2 38 C1.86722656 36.91460937 1.73445313 35.82921875 1.59765625 34.7109375 C1.41933746 33.26561678 1.24094831 31.82030474 1.0625 30.375 C0.97548828 29.66214844 0.88847656 28.94929688 0.79882812 28.21484375 C0.71181641 27.51230469 0.62480469 26.80976563 0.53515625 26.0859375 C0.456604 25.4470459 0.37805176 24.8081543 0.29711914 24.14990234 C-0.07946915 21.42497507 -0.54776688 18.71339871 -1 16 C-1.33 25.57 -1.66 35.14 -2 45 C-8.83379247 44.31662075 -14.49401799 43.57402791 -21 42 C-21 41.67 -21 41.34 -21 41 C-18.93722893 41.14194764 -16.87478969 41.28872216 -14.8125 41.4375 C-13.66394531 41.51871094 -12.51539063 41.59992188 -11.33203125 41.68359375 C-8.48401829 41.95403812 -5.78789518 42.37521747 -3 43 C-3.33 42.01 -3.66 41.02 -4 40 C-3.99582025 38.01461797 -3.98562443 36.02894423 -3.93554688 34.04418945 C-3.645647 22.4610528 -5.09345944 11.40519801 -7 0 C-3.80367098 -1.06544301 -3.02974348 -1.19353531 0 0 Z M1 17 C2 19 2 19 2 19 Z " fill="#ADCC92" transform="translate(169,115)"/>
<path d="M0 0 C0.33 0.66 0.66 1.32 1 2 C1.66 2 2.32 2 3 2 C3 28.73 3 55.46 3 83 C1.35 83 -0.3 83 -2 83 C-2.04632695 72.76878148 -2.08187106 62.53758788 -2.10362434 52.30628586 C-2.11406447 47.55555264 -2.1282279 42.80489115 -2.15087891 38.05419922 C-2.17259905 33.47008814 -2.1845669 28.88604608 -2.18975449 24.30188751 C-2.19345173 22.55238 -2.20067144 20.80287629 -2.21146011 19.05339813 C-2.22596403 16.6042004 -2.22797841 14.15528841 -2.22705078 11.70605469 C-2.23424133 10.98172745 -2.24143188 10.25740021 -2.24884033 9.51112366 C-2.23377923 5.83960733 -2.02587429 3.12030924 0 0 Z " fill="#FAFBFA" transform="translate(87,85)"/>
<path d="M0 0 C0.474375 0.433125 0.94875 0.86625 1.4375 1.3125 C1.1075 2.3025 0.7775 3.2925 0.4375 4.3125 C-1.44195312 4.06886719 -1.44195312 4.06886719 -3.359375 3.8203125 C-8.85102705 3.21275287 -14.29212538 3.1618089 -19.8125 3.1875 C-20.81869385 3.18943359 -21.8248877 3.19136719 -22.86157227 3.19335938 C-30.1365479 3.23552296 -37.32492014 3.53456435 -44.5625 4.3125 C-44.5625 4.9725 -44.5625 5.6325 -44.5625 6.3125 C-48.93823952 6.90582061 -53.13778444 7.45077236 -57.5625 7.3125 C-57.5625 6.3225 -57.5625 5.3325 -57.5625 4.3125 C-52.23532727 2.20382746 -46.83836045 0.40443186 -41.375 -1.3125 C-40.68599609 -1.53059326 -39.99699219 -1.74868652 -39.28710938 -1.97338867 C-26.86907537 -5.83974897 -11.37754523 -7.49252979 0 0 Z " fill="#838C99" transform="translate(176.5625,172.6875)"/>
<path d="M0 0 C0.66 0 1.32 0 2 0 C2 0.66 2 1.32 2 2 C2.598125 2.28875 3.19625 2.5775 3.8125 2.875 C6 4 6 4 9 6 C9.36914349 7.99524117 9.36914349 7.99524117 9.36076355 10.49246216 C9.36488754 11.43759674 9.36901154 12.38273132 9.3732605 13.35650635 C9.36247467 14.39659851 9.35168884 15.43669067 9.34057617 16.50830078 C9.34101425 17.60099274 9.34145233 18.69368469 9.34190369 19.81948853 C9.33980731 23.44494257 9.31643584 27.06993886 9.29296875 30.6953125 C9.28737583 33.20351916 9.2831043 35.71172908 9.28010559 38.21994019 C9.26980671 44.15566431 9.24614291 50.09124063 9.21605712 56.02688873 C9.17926528 63.44628187 9.16312895 70.86569529 9.14648438 78.28515625 C9.1142776 91.52352406 9.06305202 104.7617457 9 118 C4.545 118.495 4.545 118.495 0 119 C0 79.73 0 40.46 0 0 Z M2 5 C0.90083958 17.64007219 0.87002058 30.22261346 0.90234375 42.90234375 C0.90421301 45.07808906 0.90563451 47.2538348 0.90663147 49.42958069 C0.91041666 55.10608113 0.92021195 60.78255524 0.93133545 66.45904541 C0.94163638 72.27152145 0.94614754 78.08400181 0.95117188 83.89648438 C0.96183852 95.26433437 0.97886583 106.63216498 1 118 C4.465 117.505 4.465 117.505 8 117 C8.06957391 103.57828318 8.12284897 90.15660941 8.15543652 76.73474884 C8.17107852 70.50213746 8.19229036 64.26964965 8.22631836 58.03710938 C8.25896358 52.02004281 8.27686404 46.00309496 8.28463173 39.98594666 C8.29016593 37.69268424 8.30097286 35.39942818 8.31719017 33.10621643 C8.33903264 29.88902856 8.34196402 26.67232847 8.34057617 23.45507812 C8.351362 22.51136353 8.36214783 21.56764893 8.3732605 20.59533691 C8.34589368 14.71538066 7.38061059 10.3876886 5 5 C4.01 5 3.02 5 2 5 Z " fill="#AFB5BB" transform="translate(135,39)"/>
<path d="M0 0 C0.66 0 1.32 0 2 0 C2 36.96 2 73.92 2 112 C-0.97 112 -3.94 112 -7 112 C-7 77.02 -7 42.04 -7 6 C-6.01 6.495 -6.01 6.495 -5 7 C-5.33 41.32 -5.66 75.64 -6 111 C-2.535 110.505 -2.535 110.505 1 110 C0.67 109.01 0.34 108.02 0 107 C-0.08600676 104.41778577 -0.11563992 101.86349863 -0.09765625 99.28173828 C-0.09619598 98.49573242 -0.09473572 97.70972656 -0.0932312 96.89990234 C-0.08942259 95.18933614 -0.08330328 93.47877389 -0.07516479 91.76822281 C-0.06235867 89.04020656 -0.05587201 86.31223929 -0.05102539 83.584198 C-0.03767083 76.79153955 -0.0137718 69.99892612 0.01037598 63.20629883 C0.03035792 57.49050003 0.0459078 51.77472031 0.05593872 46.05889511 C0.06228744 43.40903036 0.07480545 40.75924543 0.08764648 38.10940552 C0.11580674 28.25088821 -0.13002125 18.45030163 -0.7353363 8.60829353 C-0.78343948 7.77219992 -0.83154266 6.9361063 -0.88110352 6.07467651 C-0.92783707 5.33469862 -0.97457062 4.59472073 -1.02272034 3.83231926 C-1 2 -1 2 0 0 Z " fill="#CFD2D7" transform="translate(61,62)"/>
<path d="M0 0 C0.33 0 0.66 0 1 0 C1.027193 1.58323688 1.04648306 3.16661062 1.0625 4.75 C1.07410156 5.63171875 1.08570312 6.5134375 1.09765625 7.421875 C1 10 1 10 0.51367188 11.7265625 C-0.1833651 14.81154743 -0.22266008 17.79253998 -0.31640625 20.953125 C-0.33718735 21.61334656 -0.35796844 22.27356812 -0.37937927 22.95379639 C-0.44450147 25.05243015 -0.50358502 27.15118372 -0.5625 29.25 C-0.60572079 30.67709547 -0.6493362 32.10417905 -0.69335938 33.53125 C-0.80014411 37.02070722 -0.90151566 40.51029753 -1 44 C-2.65 43.34 -4.3 42.68 -6 42 C-6 41.34 -6 40.68 -6 40 C-6.99 39.67 -7.98 39.34 -9 39 C-8.9690625 37.081875 -8.9690625 37.081875 -8.9375 35.125 C-8.94547345 30.10172404 -8.96320012 24.92969002 -10 20 C-10.66 19.67 -11.32 19.34 -12 19 C-12 21.31 -12 23.62 -12 26 C-12.66 26 -13.32 26 -14 26 C-14 24.35 -14 22.7 -14 21 C-14.99 21.33 -15.98 21.66 -17 22 C-17 19.03 -17 16.06 -17 13 C-15.02 13 -13.04 13 -11 13 C-10.67 12.01 -10.34 11.02 -10 10 C-7.9375 11.375 -7.9375 11.375 -6 14 C-5.95247628 16.56196033 -6.24951428 18.93435738 -6.640625 21.46484375 C-7.00174539 24.01231256 -7.05515002 26.43092834 -7 29 C-6.34 29 -5.68 29 -5 29 C-4.96261719 28.27296875 -4.92523438 27.5459375 -4.88671875 26.796875 C-4.45492108 20.19291066 -3.45636312 14.07713446 -1.71875 7.69140625 C-1.03736179 5.13990366 -0.48967235 2.59432176 0 0 Z " fill="#8DBE5F" transform="translate(30,125)"/>
<path d="M0 0 C0.66 0 1.32 0 2 0 C2 36.63 2 73.26 2 111 C-0.31 111 -2.62 111 -5 111 C-5 110.67 -5 110.34 -5 110 C-3.35 110 -1.7 110 0 110 C-0.03258408 109.44083893 -0.06516815 108.88167786 -0.09873962 108.30557251 C-1.29247521 86.62137159 -0.93046158 64.97871197 -0.60510254 43.2755127 C-0.53320281 38.38035652 -0.46912531 33.48509777 -0.40429688 28.58984375 C-0.27698262 19.05978309 -0.14131288 9.52986269 0 0 Z " fill="#CBD1D6" transform="translate(49,63)"/>
<path d="M0 0 C2.25 2.0625 2.25 2.0625 4 4 C3.67 2.35 3.34 0.7 3 -1 C3.66 -0.67 4.32 -0.34 5 0 C5.40729228 2.32156597 5.74438677 4.6568787 6 7 C4.68 7 3.36 7 2 7 C1.34 5.68 0.68 4.36 0 3 C-0.08948558 7.47427924 0.14256349 11.60563789 1 16 C1.66 16 2.32 16 3 16 C3.144375 17.134375 3.28875 18.26875 3.4375 19.4375 C3.61171478 22.80777201 3.61171478 22.80777201 5 24 C4.91015699 25.85772162 4.75388139 27.71247985 4.5625 29.5625 C4.46066406 30.57441406 4.35882813 31.58632812 4.25390625 32.62890625 C4.12822266 33.80259766 4.12822266 33.80259766 4 35 C3.34 34.67 2.68 34.34 2 34 C1.49755859 32.23413086 1.49755859 32.23413086 1.1484375 29.96484375 C1.03161621 29.23644287 0.91479492 28.50804199 0.79443359 27.75756836 C0.65602051 26.8269458 0.51760742 25.89632324 0.375 24.9375 C-0.07875 21.988125 -0.5325 19.03875 -1 16 C-1.33 25.57 -1.66 35.14 -2 45 C-8.83379247 44.31662075 -14.49401799 43.57402791 -21 42 C-21 41.67 -21 41.34 -21 41 C-18.93722893 41.14194764 -16.87478969 41.28872216 -14.8125 41.4375 C-13.66394531 41.51871094 -12.51539063 41.59992188 -11.33203125 41.68359375 C-8.48401829 41.95403812 -5.78789518 42.37521747 -3 43 C-3.33 42.01 -3.66 41.02 -4 40 C-3.99582025 38.01461797 -3.98562443 36.02894423 -3.93554688 34.04418945 C-3.645647 22.4610528 -5.09345944 11.40519801 -7 0 C-3.80367098 -1.06544301 -3.02974348 -1.19353531 0 0 Z M1 17 C2 19 2 19 2 19 Z " fill="#C6D4C1" transform="translate(169,115)"/>
<path d="M0 0 C1.9375 0.75 1.9375 0.75 4 2 C4.62890625 4.078125 4.62890625 4.078125 5 6 C5.62648438 5.98839844 6.25296875 5.97679688 6.8984375 5.96484375 C7.71570312 5.95582031 8.53296875 5.94679688 9.375 5.9375 C10.18710937 5.92589844 10.99921875 5.91429688 11.8359375 5.90234375 C14 6 14 6 16 7 C16 7.66 16 8.32 16 9 C14.68 9 13.36 9 12 9 C12.95207652 11.44819677 13.87505878 13.78299682 15.1875 16.0625 C16.18971474 18.4523967 15.85580298 19.60375166 15 22 C14.34 20.68 13.68 19.36 13 18 C12.731875 18.928125 12.46375 19.85625 12.1875 20.8125 C11 24 11 24 8 27 C7.67 23.7 7.34 20.4 7 17 C5.68 16.67 4.36 16.34 3 16 C3 15.34 3 14.68 3 14 C1.02 14.66 -0.96 15.32 -3 16 C-3 15.01 -3 14.02 -3 13 C-2.01 12.34 -1.02 11.68 0 11 C0 10.34 0 9.68 0 9 C-2.97 8.505 -2.97 8.505 -6 8 C-5.67 7.01 -5.34 6.02 -5 5 C-2.69 5 -0.38 5 2 5 C1.34 3.35 0.68 1.7 0 0 Z " fill="#77B144" transform="translate(28,106)"/>
<path d="M0 0 C4 0 4 0 5.8515625 1.6796875 C6.72941406 2.76636719 6.72941406 2.76636719 7.625 3.875 C8.21539062 4.59429687 8.80578125 5.31359375 9.4140625 6.0546875 C10.19910156 7.01761719 10.19910156 7.01761719 11 8 C11.66 8.66 12.32 9.32 13 10 C13.33 8.68 13.66 7.36 14 6 C15.01131225 7.40861349 16.00866767 8.82725453 17 10.25 C17.556875 11.03890625 18.11375 11.8278125 18.6875 12.640625 C20 15 20 15 20 19 C19.34 19 18.68 19 18 19 C18 18.34 18 17.68 18 17 C17.01 16.67 16.02 16.34 15 16 C15 15.34 15 14.68 15 14 C14.34 14 13.68 14 13 14 C11.375 12.5 11.375 12.5 10 11 C10 11.99 10 12.98 10 14 C8.02 14 6.04 14 4 14 C3.505 13.01 3.505 13.01 3 12 C0.08823576 10.75031578 -2.97243784 9.92812151 -6 9 C-7.0725 8.608125 -8.145 8.21625 -9.25 7.8125 C-15.45458608 6.46817302 -22.25386748 6.24025393 -28.50390625 7.5078125 C-31.48693285 8.09601493 -34.27469688 8.09588245 -37.3125 8.0625 C-38.38113281 8.05347656 -39.44976562 8.04445312 -40.55078125 8.03515625 C-41.35902344 8.02355469 -42.16726562 8.01195312 -43 8 C-43 7.67 -43 7.34 -43 7 C-34.7179693 5.21960185 -26.69574251 4.80708996 -18.25 4.8125 C-17.28054443 4.81185547 -16.31108887 4.81121094 -15.31225586 4.81054688 C-10.09444554 4.84975508 -5.03114183 5.12647466 0.13378906 5.88549805 C2.23042831 6.13081931 2.23042831 6.13081931 5 5 C2.525 2.525 2.525 2.525 0 0 Z M7 7 C7 7.66 7 8.32 7 9 C7.66 8.67 8.32 8.34 9 8 C8.34 7.67 7.68 7.34 7 7 Z " fill="#BEC3C8" transform="translate(175,170)"/>
<path d="M0 0 C1.97986082 0.11347619 3.95891598 0.2410935 5.9375 0.375 C7.59072266 0.47941406 7.59072266 0.47941406 9.27734375 0.5859375 C10.17582031 0.72257812 11.07429688 0.85921875 12 1 C12.33 1.66 12.66 2.32 13 3 C10.03 3 7.06 3 4 3 C4.42152344 3.53109375 4.84304687 4.0621875 5.27734375 4.609375 C5.82519531 5.31578125 6.37304688 6.0221875 6.9375 6.75 C7.48277344 7.44609375 8.02804688 8.1421875 8.58984375 8.859375 C9.97425654 10.96092128 10.56286987 12.54321799 11 15 C8 14 8 14 6.6875 11.9375 C6.130625 11.298125 5.57375 10.65875 5 10 C3.02 10 1.04 10 -1 10 C-1.66 14.29 -2.32 18.58 -3 23 C-5 22 -5 22 -6 19 C-6.03954234 16.66700175 -6.04401732 14.33291811 -6 12 C-6.99 12 -7.98 12 -9 12 C-8.37240135 9.07120629 -7.41377341 6.63904371 -6 4 C-7.65 4 -9.3 4 -11 4 C-11 3.34 -11 2.68 -11 2 C-7.37 2 -3.74 2 0 2 C0 1.34 0 0.68 0 0 Z " fill="#77B146" transform="translate(163,105)"/>
<path d="M0 0 C0.89074219 -0.01224609 1.78148437 -0.02449219 2.69921875 -0.03710938 C9.36408737 -0.05183294 14.69504304 0.40086203 20.375 4.1875 C20.045 5.1775 19.715 6.1675 19.375 7.1875 C17.56708984 6.95740234 17.56708984 6.95740234 15.72265625 6.72265625 C9.43380969 6.02389552 3.13317071 5.83837073 -3.1875 5.625 C-4.38697266 5.58181641 -5.58644531 5.53863281 -6.82226562 5.49414062 C-9.75641793 5.38893198 -12.6906425 5.28679117 -15.625 5.1875 C-13.625 3.1875 -13.625 3.1875 -10.625 1.1875 C-8.36124581 -1.07625419 -3.03751092 0.00214211 0 0 Z " fill="#1F324D" transform="translate(157.625,169.8125)"/>
<path d="M0 0 C3.70293685 -0.33663062 5.39534381 -0.47736015 8.375 1.875 C10 4 10 4 10 6 C11.3303125 5.690625 11.3303125 5.690625 12.6875 5.375 C16.2252711 4.97449761 17.86632967 5.43316484 21 7 C21.125 9.875 21.125 9.875 21 13 C20.34 13.66 19.68 14.32 19 15 C19.350625 16.0725 19.70125 17.145 20.0625 18.25 C21.23076923 22.92307692 21.23076923 22.92307692 20 26 C19.21625 25.938125 18.4325 25.87625 17.625 25.8125 C16.325625 25.9053125 16.325625 25.9053125 15 26 C14.34 26.99 13.68 27.98 13 29 C13.144375 28.29875 13.28875 27.5975 13.4375 26.875 C14.01478375 23.92443859 14.51695141 20.96729849 15 18 C15.66 18.33 16.32 18.66 17 19 C17.33 19.99 17.66 20.98 18 22 C17.55296014 17.52116304 17.55296014 17.52116304 15 14 C15 12.68 15 11.36 15 10 C16.32 10 17.64 10 19 10 C19 9.34 19 8.68 19 8 C18.38511719 8.03480469 17.77023438 8.06960937 17.13671875 8.10546875 C15.92435547 8.14607422 15.92435547 8.14607422 14.6875 8.1875 C13.88699219 8.22230469 13.08648437 8.25710937 12.26171875 8.29296875 C9.46737126 7.93100664 8.7642791 7.13354682 7 5 C6.278125 4.278125 5.55625 3.55625 4.8125 2.8125 C3.9153125 1.9153125 3.9153125 1.9153125 3 1 C3.66 2.65 4.32 4.3 5 6 C2.69 6 0.38 6 -2 6 C-2 6.66 -2 7.32 -2 8 C-0.35 8.33 1.3 8.66 3 9 C3 9.33 3 9.66 3 10 C0.36 10 -2.28 10 -5 10 C-4.3125 7.5625 -4.3125 7.5625 -3 5 C-0.375 4.1875 -0.375 4.1875 2 4 C1.34 2.68 0.68 1.36 0 0 Z M17 12 C18 14 18 14 18 14 Z " fill="#E0EAD6" transform="translate(25,105)"/>
<path d="M0 0 C0.99 0.33 1.98 0.66 3 1 C3.33 6.94 3.66 12.88 4 19 C-0.10603418 15.71517265 -1.71322155 14.33284339 -4 10 C-4.33 12.31 -4.66 14.62 -5 17 C-7 15 -7 15 -7.16015625 12.6875 C-7.12792969 11.800625 -7.09570312 10.91375 -7.0625 10 C-6.85490002 6.35770507 -6.85490002 6.35770507 -8 3 C-7.67 2.34 -7.34 1.68 -7 1 C-5.35 1.33 -3.7 1.66 -2 2 C-2 3.65 -2 5.3 -2 7 C-1.34 7 -0.68 7 0 7 C0 4.69 0 2.38 0 0 Z " fill="#F1F3F0" transform="translate(18,144)"/>
<path d="M0 0 C0.99 0.495 0.99 0.495 2 1 C4.11694547 7.72441501 4.49485886 15.00778321 5 22 C5.33 22 5.66 22 6 22 C6 24.97 6 27.94 6 31 C4.02 30.67 2.04 30.34 0 30 C0 20.1 0 10.2 0 0 Z " fill="#73A846" transform="translate(167,130)"/>
<path d="M0 0 C0.33 0 0.66 0 1 0 C1.027193 1.58323688 1.04648306 3.16661062 1.0625 4.75 C1.07410156 5.63171875 1.08570313 6.5134375 1.09765625 7.421875 C1 10 1 10 0.51367188 11.7265625 C-0.1833651 14.81154743 -0.22266008 17.79253998 -0.31640625 20.953125 C-0.33718735 21.61334656 -0.35796844 22.27356812 -0.37937927 22.95379639 C-0.44450147 25.05243015 -0.50358502 27.15118372 -0.5625 29.25 C-0.60572079 30.67709547 -0.6493362 32.10417905 -0.69335938 33.53125 C-0.80014411 37.02070722 -0.90151566 40.51029753 -1 44 C-2.65 43.34 -4.3 42.68 -6 42 C-6.33 39.69 -6.66 37.38 -7 35 C-6.01 35 -5.02 35 -4 35 C-3.96261719 33.73027344 -3.92523437 32.46054688 -3.88671875 31.15234375 C-3.50226665 20.46269998 -2.50816619 10.41125587 0 0 Z " fill="#71A347" transform="translate(30,125)"/>
<path d="M0 0 C3.79588866 0.54226981 5.47211993 2.20127563 8 5 C7.67 3.35 7.34 1.7 7 0 C7.66 0.33 8.32 0.66 9 1 C9.40729228 3.32156597 9.74438677 5.6568787 10 8 C8.68 8 7.36 8 6 8 C5.34 6.68 4.68 5.36 4 4 C3.91051442 8.47427924 4.14256349 12.60563789 5 17 C5.66 17 6.32 17 7 17 C7.144375 18.134375 7.28875 19.26875 7.4375 20.4375 C7.61171478 23.80777201 7.61171478 23.80777201 9 25 C8.91015699 26.85772162 8.75388139 28.71247985 8.5625 30.5625 C8.46066406 31.57441406 8.35882813 32.58632812 8.25390625 33.62890625 C8.17011719 34.41136719 8.08632812 35.19382813 8 36 C7.34 35.67 6.68 35.34 6 35 C5.42320076 32.2609586 4.96092948 29.57851464 4.5625 26.8125 C3.46963743 19.70853867 2.14946555 12.73227201 0.55078125 5.72265625 C0 3 0 3 0 0 Z M5 18 C6 20 6 20 6 20 Z " fill="#F2F4EE" transform="translate(165,114)"/>
<path d="M0 0 C-12.55014652 3.98225803 -25.00236891 7.13184576 -38.0859375 8.60546875 C-40.9309426 8.83081721 -40.9309426 8.83081721 -43 10 C-45.39780052 9.96230785 -47.79463136 9.84576476 -50.1875 9.6875 C-51.48042969 9.60886719 -52.77335937 9.53023437 -54.10546875 9.44921875 C-57.99720952 9.00032187 -61.28289063 8.18118261 -65 7 C-65 6.34 -65 5.68 -65 5 C-65.99 4.67 -66.98 4.34 -68 4 C-60.54730545 4.75790114 -60.54730545 4.75790114 -57.72387695 6.00683594 C-47.86585955 9.60120851 -36.0906573 6.18941725 -26.125 4.125 C-24.75021181 3.85179658 -23.37521184 3.57965662 -22 3.30859375 C-17.02128841 2.31362963 -12.08819984 1.32128072 -7.21435547 -0.11767578 C-4.15974167 -0.95615173 -2.87752474 -1.1510099 0 0 Z " fill="#D8DBDE" transform="translate(100,178)"/>
<path d="M0 0 C0 3.96 0 7.92 0 12 C-0.66 11.67 -1.32 11.34 -2 11 C-2.625 8.4375 -2.625 8.4375 -3 6 C-5.0708515 7.12393047 -5.0708515 7.12393047 -7 9 C-7.69749589 11.72489473 -7.69749589 11.72489473 -7.75 14.6875 C-7.80671875 15.68136719 -7.8634375 16.67523438 -7.921875 17.69921875 C-7.94765625 18.45847656 -7.9734375 19.21773437 -8 20 C-9.65 19.67 -11.3 19.34 -13 19 C-14.79321797 12.26853564 -15.2158855 7.6476565 -13 1 C-12.34 1.33 -11.68 1.66 -11 2 C-11.33 7.28 -11.66 12.56 -12 18 C-11.34 18 -10.68 18 -10 18 C-10.185625 16.700625 -10.37125 15.40125 -10.5625 14.0625 C-10.60704964 10.55421583 -10.18113653 9.23935898 -8.03125 6.3984375 C-1.6125 0 -1.6125 0 0 0 Z M-2 2 C-1 4 -1 4 -1 4 Z " fill="#E8EAEA" transform="translate(90,22)"/>
<path d="M0 0 C2.97 0 5.94 0 9 0 C9 0.33 9 0.66 9 1 C6.36 1 3.72 1 1 1 C1 1.66 1 2.32 1 3 C2.65 3 4.3 3 6 3 C5.37240135 5.92879371 4.41377341 8.36095629 3 11 C3.99 11 4.98 11 6 11 C6.66 14.3 7.32 17.6 8 21 C8.33 18.36 8.66 15.72 9 13 C9.33 13 9.66 13 10 13 C10 16.63 10 20.26 10 24 C8.68 23.67 7.36 23.34 6 23 C4.75 19.9375 4.75 19.9375 4 17 C3.01 17 2.02 17 1 17 C1.14042877 15.35369672 1.28749329 13.70795821 1.4375 12.0625 C1.51871094 11.14597656 1.59992188 10.22945312 1.68359375 9.28515625 C2 7 2 7 3 6 C2.01 5.67 1.02 5.34 0 5 C0 3.35 0 1.7 0 0 Z " fill="#D6E4C6" transform="translate(151,106)"/>
<path d="M0 0 C-0.33 1.32 -0.66 2.64 -1 4 C1.31 4.66 3.62 5.32 6 6 C6.33 7.65 6.66 9.3 7 11 C4.69 11 2.38 11 0 11 C0.66 12.32 1.32 13.64 2 15 C0.2925002 13.71937515 -1.37373596 12.38232443 -3 11 C-3 10.34 -3 9.68 -3 9 C-0.36 8.67 2.28 8.34 5 8 C3.22932584 7.83165067 1.45845388 7.66538091 -0.3125 7.5 C-1.79169922 7.36078125 -1.79169922 7.36078125 -3.30078125 7.21875 C-6.04702139 6.95961143 -6.04702139 6.95961143 -9 7 C-7.20098245 1.74133331 -5.88456942 0 0 0 Z " fill="#CEDFBF" transform="translate(170,99)"/>
<path d="M0 0 C4 0 4 0 5.8515625 1.6796875 C6.43679687 2.40414062 7.02203125 3.12859375 7.625 3.875 C8.21539062 4.59429687 8.80578125 5.31359375 9.4140625 6.0546875 C9.93742188 6.69664062 10.46078125 7.33859375 11 8 C11.66 8.66 12.32 9.32 13 10 C13.33 8.68 13.66 7.36 14 6 C15.01131225 7.40861349 16.00866767 8.82725453 17 10.25 C17.556875 11.03890625 18.11375 11.8278125 18.6875 12.640625 C20 15 20 15 20 19 C19.34 19 18.68 19 18 19 C18 18.34 18 17.68 18 17 C17.01 16.67 16.02 16.34 15 16 C15 15.34 15 14.68 15 14 C14.34 14 13.68 14 13 14 C11.2856382 12.04072937 9.61594832 10.04119788 8 8 C6.68 8.33 5.36 8.66 4 9 C3.67 7.68 3.34 6.36 3 5 C3.66 5 4.32 5 5 5 C3.35 3.35 1.7 1.7 0 0 Z " fill="#CBCFD2" transform="translate(175,170)"/>
<path d="M0 0 C1.35735142 1.30887458 2.68505488 2.64852862 4 4 C5.1446875 5.175625 5.1446875 5.175625 6.3125 6.375 C8 9 8 9 7.75 12.3125 C7.5025 13.199375 7.255 14.08625 7 15 C6.34 15 5.68 15 5 15 C5 15.66 5 16.32 5 17 C4.34 17 3.68 17 3 17 C-0.61601216 11.42531458 -0.30720059 6.39432346 0 0 Z " fill="#657383" transform="translate(13,153)"/>
<path d="M0 0 C1.12929932 -0.01756348 2.25859863 -0.03512695 3.42211914 -0.05322266 C9.60800044 -0.04863066 14.16343799 0.32988905 19.625 3.3125 C19.625 3.9725 19.625 4.6325 19.625 5.3125 C19.05136719 5.0959375 18.47773438 4.879375 17.88671875 4.65625 C4.76738914 0.35613589 -9.15481489 1.489732 -22.37109375 4.75390625 C-25.2166407 5.28305217 -26.70300427 5.30383011 -29.375 4.3125 C-21.29210901 -1.07609399 -9.35732837 0.07940419 0 0 Z " fill="#D0D3D7" transform="translate(155.375,164.6875)"/>
<path d="M0 0 C0.99 0 1.98 0 3 0 C4.80619523 4.46236469 5.11658501 7.31034294 4 12 C4.66 12.33 5.32 12.66 6 13 C5.01 13 4.02 13 3 13 C2.67 10.69 2.34 8.38 2 6 C1.67 18.87 1.34 31.74 1 45 C0.67 45 0.34 45 0 45 C0 30.15 0 15.3 0 0 Z " fill="#FCFCFC" transform="translate(148,111)"/>
<path d="M0 0 C0.66 0.33 1.32 0.66 2 1 C2 2.65 2 4.3 2 6 C2.66 6 3.32 6 4 6 C4 4.35 4 2.7 4 1 C4.66 1 5.32 1 6 1 C6 1.66 6 2.32 6 3 C6.66 3 7.32 3 8 3 C8.33 2.01 8.66 1.02 9 0 C8.67 1.65 8.34 3.3 8 5 C7.01 5 6.02 5 5 5 C5 5.66 5 6.32 5 7 C3.68 7 2.36 7 1 7 C-0.35825196 13.45169682 -1.66808274 20.39362073 2 26.125 C2.66 26.74375 3.32 27.3625 4 28 C1.53199953 26.84826645 -0.04783565 25.95216435 -2 24 C-2.74454059 15.85385002 -2.03920373 7.90191445 0 0 Z " fill="#EEEFED" transform="translate(176,139)"/>
<path d="M0 0 C2.41466913 1.20733457 4.69115369 2.60254039 7 4 C7.33 3.34 7.66 2.68 8 2 C9.42944945 4.35438733 10.08661261 5.48032433 9.625 8.25 C9.41875 8.8275 9.2125 9.405 9 10 C8.34 8.68 7.68 7.36 7 6 C6.731875 6.928125 6.46375 7.85625 6.1875 8.8125 C5 12 5 12 2 15 C1.67 11.7 1.34 8.4 1 5 C-0.32 4.67 -1.64 4.34 -3 4 C-3 3.34 -3 2.68 -3 2 C-2.01 1.34 -1.02 0.68 0 0 Z " fill="#78AD4A" transform="translate(34,118)"/>
<path d="M0 0 C0.33 0 0.66 0 1 0 C1.09945415 6.11090483 1.0712828 11.97403427 0 18 C-0.99 18 -1.98 18 -3 18 C-3 19.65 -3 21.3 -3 23 C-5.34653846 20.65346154 -5.2696755 20.12380653 -5.37890625 16.9375 C-5.41306641 16.14085937 -5.44722656 15.34421875 -5.48242188 14.5234375 C-5.50884766 13.69070312 -5.53527344 12.85796875 -5.5625 12 C-5.62237701 10.35401919 -5.68600242 8.70816921 -5.75390625 7.0625 C-5.77783447 6.33160156 -5.8017627 5.60070312 -5.82641602 4.84765625 C-5.89653634 2.90560105 -5.89653634 2.90560105 -7 1 C-6.01 1.33 -5.02 1.66 -4 2 C-3.67 5.3 -3.34 8.6 -3 12 C-2.34 12 -1.68 12 -1 12 C-0.67 8.04 -0.34 4.08 0 0 Z " fill="#9AC378" transform="translate(26,142)"/>
<path d="M0 0 C0.33 0 0.66 0 1 0 C1.125 2.875 1.125 2.875 1 6 C0.34 6.66 -0.32 7.32 -1 8 C-0.649375 9.0725 -0.29875 10.145 0.0625 11.25 C1.23076923 15.92307692 1.23076923 15.92307692 0 19 C-0.78375 18.938125 -1.5675 18.87625 -2.375 18.8125 C-3.674375 18.9053125 -3.674375 18.9053125 -5 19 C-5.66 19.99 -6.32 20.98 -7 22 C-6.855625 21.29875 -6.71125 20.5975 -6.5625 19.875 C-5.98521625 16.92443859 -5.48304859 13.96729849 -5 11 C-4.34 11.33 -3.68 11.66 -3 12 C-2.67 12.99 -2.34 13.98 -2 15 C-2.59950296 11.31733897 -3.24758891 7.65456815 -4 4 C-3.01 4 -2.02 4 -1 4 C-0.67 2.68 -0.34 1.36 0 0 Z M-3 5 C-2 7 -2 7 -2 7 Z " fill="#F0F0EB" transform="translate(45,112)"/>
<path d="M0 0 C2.31 0.33 4.62 0.66 7 1 C7 1.66 7 2.32 7 3 C8.65 3 10.3 3 12 3 C12.33 4.65 12.66 6.3 13 8 C11.02 8 9.04 8 7 8 C6.67 7.34 6.34 6.68 6 6 C3.97536745 5.34786708 3.97536745 5.34786708 2 5 C2 4.34 2 3.68 2 3 C1.34 3 0.68 3 0 3 C0 2.01 0 1.02 0 0 Z " fill="#404F63" transform="translate(172,176)"/>
<path d="M0 0 C7.78706907 0.89253782 7.78706907 0.89253782 10.9765625 4.08203125 C10.6465625 5.07203125 10.3165625 6.06203125 9.9765625 7.08203125 C7.9965625 7.08203125 6.0165625 7.08203125 3.9765625 7.08203125 C3.9765625 6.42203125 3.9765625 5.76203125 3.9765625 5.08203125 C2.8421875 4.95828125 1.7078125 4.83453125 0.5390625 4.70703125 C-0.6365625 4.50078125 -1.8121875 4.29453125 -3.0234375 4.08203125 C-3.3534375 3.42203125 -3.6834375 2.76203125 -4.0234375 2.08203125 C-2.0234375 0.08203125 -2.0234375 0.08203125 0 0 Z " fill="#4C5B6E" transform="translate(167.0234375,169.91796875)"/>
<path d="M0 0 C-24.95569358 7.91863354 -24.95569358 7.91863354 -37 7 C-37 6.67 -37 6.34 -37 6 C-36.24904053 5.85900879 -35.49808105 5.71801758 -34.72436523 5.57275391 C-31.29476478 4.92687712 -27.86613466 4.27598343 -24.4375 3.625 C-23.25607422 3.40328125 -22.07464844 3.1815625 -20.85742188 2.953125 C-13.81600306 1.64139439 -13.81600306 1.64139439 -6.91015625 -0.2265625 C-4.0500345 -0.98670224 -2.71215301 -1.0848612 0 0 Z " fill="#C4C9CD" transform="translate(100,178)"/>
<path d="M0 0 C-0.99 0.66 -1.98 1.32 -3 2 C-0.69 2.66 1.62 3.32 4 4 C0.30691024 5.23102992 -2.88050712 4.87175152 -6.6875 4.5625 C-7.7403418 4.48418945 -7.7403418 4.48418945 -8.81445312 4.40429688 C-10.54338054 4.27492135 -12.27175355 4.13817469 -14 4 C-13.171875 2.05078125 -13.171875 2.05078125 -12 0 C-7.75013074 -1.25564319 -4.29317818 -0.91996675 0 0 Z " fill="#22354F" transform="translate(167,171)"/>
<path d="M0 0 C7.50769231 0.49230769 7.50769231 0.49230769 10 3.0625 C10.33 3.701875 10.66 4.34125 11 5 C8 5 8 5 5 3 C4.42926758 3.32597168 3.85853516 3.65194336 3.27050781 3.98779297 C0.83392354 5.07403796 -0.68281107 5.2331027 -3.328125 5.1953125 C-4.52695313 5.18564453 -4.52695313 5.18564453 -5.75 5.17578125 C-6.575 5.15902344 -7.4 5.14226562 -8.25 5.125 C-9.09046875 5.11597656 -9.9309375 5.10695312 -10.796875 5.09765625 C-12.86470604 5.07415817 -14.93238995 5.03828908 -17 5 C-17 4.67 -17 4.34 -17 4 C-11.39 4 -5.78 4 0 4 C0 2.68 0 1.36 0 0 Z " fill="#4A5C6B" transform="translate(165,160)"/>
<path d="M0 0 C1.8844171 3.7688342 2.33429462 5.68012475 2.625 9.75 C2.69976562 10.73484375 2.77453125 11.7196875 2.8515625 12.734375 C2.92503906 13.85585937 2.92503906 13.85585937 3 15 C3.33 15 3.66 15 4 15 C4 17.97 4 20.94 4 24 C2.68 23.67 1.36 23.34 0 23 C0 15.41 0 7.82 0 0 Z " fill="#83B756" transform="translate(169,137)"/>
<path d="M0 0 C4.19174654 1.04793663 5.21592961 1.91763635 8 5 C7.67 3.35 7.34 1.7 7 0 C7.66 0.33 8.32 0.66 9 1 C9.40729228 3.32156597 9.74438677 5.6568787 10 8 C8.68 8 7.36 8 6 8 C5.34 6.68 4.68 5.36 4 4 C3.67 7.3 3.34 10.6 3 14 C2.67 14 2.34 14 2 14 C1.34 9.38 0.68 4.76 0 0 Z " fill="#E9EEE3" transform="translate(165,114)"/>
<path d="M0 0 C0.66 0.33 1.32 0.66 2 1 C1.67 6.28 1.34 11.56 1 17 C1.66 17 2.32 17 3 17 C3 14.03 3 11.06 3 8 C3.33 8 3.66 8 4 8 C4 11.3 4 14.6 4 18 C2.68 18 1.36 18 0 18 C-1.79321797 11.26853564 -2.2158855 6.6476565 0 0 Z " fill="#B5BBC2" transform="translate(77,23)"/>
<path d="M0 0 C2.56329125 1.63553285 4.8965258 3.5161471 7.25 5.4375 C8.20519531 6.19256836 8.20519531 6.19256836 9.1796875 6.96289062 C13.85342724 10.70685448 13.85342724 10.70685448 15 13 C10.95262365 11.62446818 8.32043426 9.75009469 5.125 6.9375 C0.95349198 3.48414082 -1.59721482 2 -7 2 C-7 1.34 -7 0.68 -7 0 C-4.15735989 -1.42132005 -3.03665308 -0.96887688 0 0 Z " fill="#CED2D6" transform="translate(133,26)"/>
<path d="M0 0 C7.96090356 6.19417897 7.96090356 6.19417897 9 11 C8.67 11.99 8.34 12.98 8 14 C5.36 11.36 2.72 8.72 0 6 C0.99 5.67 1.98 5.34 3 5 C2.2575 4.319375 2.2575 4.319375 1.5 3.625 C0 2 0 2 0 0 Z " fill="#6A7582" transform="translate(180,167)"/>
<path d="M0 0 C5 3 5 3 7 5 C7.125 8.625 7.125 8.625 7 12 C5.58622659 9.36095629 4.62759865 6.92879371 4 4 C3.01 4 2.02 4 1 4 C1 8.95 1 13.9 1 19 C0.67 19 0.34 19 0 19 C0 12.73 0 6.46 0 0 Z " fill="#F9F9F9" transform="translate(136,40)"/>
<path d="M0 0 C-0.33 0.66 -0.66 1.32 -1 2 C-8.78398388 4.40649883 -16.94275216 4.23057307 -25 4 C-25 3.67 -25 3.34 -25 3 C-24.28714844 2.95101562 -23.57429688 2.90203125 -22.83984375 2.8515625 C-15.0526394 2.24367845 -7.79442227 -0.31813968 0 0 Z " fill="#425063" transform="translate(70,182)"/>
<path d="M0 0 C0.66 0.33 1.32 0.66 2 1 C-1.465 2.485 -1.465 2.485 -5 4 C-2.69 4.33 -0.38 4.66 2 5 C-1.06246747 6.78409802 -3.22079273 7.22880021 -6.75 7.125 C-7.54921875 7.10695312 -8.3484375 7.08890625 -9.171875 7.0703125 C-9.77515625 7.04710937 -10.3784375 7.02390625 -11 7 C-11 6.01 -11 5.02 -11 4 C-9.72942818 3.52014033 -8.45853152 3.0411407 -7.1875 2.5625 C-6.47980469 2.29566406 -5.77210937 2.02882812 -5.04296875 1.75390625 C-3.37327604 1.13774814 -1.68842296 0.56280765 0 0 Z " fill="#CED2D6" transform="translate(130,173)"/>
<path d="M0 0 C0.33 0 0.66 0 1 0 C1 1.98 1 3.96 1 6 C1.99 5.67 2.98 5.34 4 5 C4.33 7.64 4.66 10.28 5 13 C3.0625 13.5625 3.0625 13.5625 1 14 C-0.5439778 12.4560222 -0.38023976 10.82390724 -0.625 8.6875 C-0.72039063 7.90761719 -0.81578125 7.12773437 -0.9140625 6.32421875 C-1.00032273 3.9912715 -0.68094412 2.22069091 0 0 Z " fill="#F9FAF9" transform="translate(34,129)"/>
<path d="M0 0 C0.99 0.33 1.98 0.66 3 1 C3.0270043 2.45823212 3.04639787 3.91660675 3.0625 5.375 C3.07410156 6.18710938 3.08570313 6.99921875 3.09765625 7.8359375 C3 10 3 10 2 12 C1.34 12 0.68 12 0 12 C-0.19477739 10.37585622 -0.38059458 8.75063577 -0.5625 7.125 C-0.66691406 6.22007812 -0.77132813 5.31515625 -0.87890625 4.3828125 C-1 2 -1 2 0 0 Z " fill="#E9EDE0" transform="translate(23,142)"/>
<path d="M0 0 C1.625 0.875 1.625 0.875 2.625 3.875 C-2.04701205 5.08068053 -6.58996292 4.96882426 -11.375 4.875 C-8.2958068 1.7958068 -4.42583443 -0.23293865 0 0 Z " fill="#334256" transform="translate(134.375,173.125)"/>
<path d="M0 0 C0.99 0.33 1.98 0.66 3 1 C2.67 5.95 2.34 10.9 2 16 C1.34 16 0.68 16 0 16 C0 10.72 0 5.44 0 0 Z " fill="#1B2E46" transform="translate(78,24)"/>
<path d="M0 0 C-6.64558134 2.60900601 -12.88515313 3.6143354 -20 4 C-17.37004222 0.59322195 -14.70531902 0.33309825 -10.5625 -0.25 C-9.42941406 -0.42015625 -8.29632813 -0.5903125 -7.12890625 -0.765625 C-4.36747944 -0.97247345 -2.58449574 -0.88901573 0 0 Z " fill="#B4B9C0" transform="translate(146,166)"/>
<path d="M0 0 C3.99996286 1.33332095 4.83782337 3.4957827 7 7 C6.38125 7.144375 5.7625 7.28875 5.125 7.4375 C2.96741678 7.93152225 2.96741678 7.93152225 1 9 C0.67 6.03 0.34 3.06 0 0 Z " fill="#394B5E" transform="translate(14,156)"/>
<path d="M0 0 C1.65 0 3.3 0 5 0 C5 1.65 5 3.3 5 5 C5.66 5 6.32 5 7 5 C7 5.99 7 6.98 7 8 C4.13275314 7.42655063 3.1385485 7.1385485 1 5 C0.375 2.375 0.375 2.375 0 0 Z " fill="#6EAD38" transform="translate(34,114)"/>
<path d="M0 0 C1.9375 0.75 1.9375 0.75 4 2 C4.625 4.0625 4.625 4.0625 5 6 C5.66 6.33 6.32 6.66 7 7 C2.83861737 7.08159574 -0.9472484 6.98248524 -5 6 C-5 5.67 -5 5.34 -5 5 C-2.69 5 -0.38 5 2 5 C1.34 3.35 0.68 1.7 0 0 Z " fill="#9BC774" transform="translate(28,106)"/>
<path d="M0 0 C7.42857143 -0.28571429 7.42857143 -0.28571429 11 2 C11 2.66 11 3.32 11 4 C11.66 4.33 12.32 4.66 13 5 C8.39146203 4.27991594 4.32762591 2.68704061 0 1 C0 0.67 0 0.34 0 0 Z " fill="#B5BAC0" transform="translate(161,175)"/>
<path d="M0 0 C-0.020625 0.9075 -0.04125 1.815 -0.0625 2.75 C-0.0110245 5.42672588 0.2215017 7.46988052 1 10 C0.34 10 -0.32 10 -1 10 C-1 9.34 -1 8.68 -1 8 C-1.66 8 -2.32 8 -3 8 C-2.95875 7.21625 -2.9175 6.4325 -2.875 5.625 C-2.71271266 2.83883881 -2.71271266 2.83883881 -5 1 C-3 0 -3 0 0 0 Z " fill="#A8CE85" transform="translate(183,132)"/>
<path d="M0 0 C0 2.62834278 -0.19789762 5.08186701 -0.5 7.6875 C-0.5928125 8.49574219 -0.685625 9.30398437 -0.78125 10.13671875 C-0.8534375 10.75160156 -0.925625 11.36648437 -1 12 C-1.66 11.67 -2.32 11.34 -3 11 C-3.875 7.6875 -3.875 7.6875 -4 4 C-2.0625 1.5625 -2.0625 1.5625 0 0 Z " fill="#8CB46D" transform="translate(161,116)"/>
<path d="M0 0 C2.125 0.375 2.125 0.375 4 1 C3.34 1.66 2.68 2.32 2 3 C1.83312552 5.58354218 1.83312552 5.58354218 2 8 C0.68 7.67 -0.64 7.34 -2 7 C-2.125 4.625 -2.125 4.625 -2 2 C-1.34 1.34 -0.68 0.68 0 0 Z " fill="#2A3E55" transform="translate(53,60)"/>
<path d="M0 0 C1.98 0 3.96 0 6 0 C6.33 0.66 6.66 1.32 7 2 C6.67 2.66 6.34 3.32 6 4 C3.69 4 1.38 4 -1 4 C-0.67 2.68 -0.34 1.36 0 0 Z " fill="#1B304D" transform="translate(159,160)"/>
<path d="M0 0 C0.66 0.33 1.32 0.66 2 1 C2.625 3.5625 2.625 3.5625 3 6 C3.66 6 4.32 6 5 6 C5 6.66 5 7.32 5 8 C4.21625 7.938125 3.4325 7.87625 2.625 7.8125 C1.325625 7.9053125 1.325625 7.9053125 0 8 C-0.66 8.99 -1.32 9.98 -2 11 C-1.855625 10.29875 -1.71125 9.5975 -1.5625 8.875 C-0.98521625 5.92443859 -0.48304859 2.96729849 0 0 Z " fill="#F5F5F3" transform="translate(40,123)"/>
<path d="M0 0 C2.09350689 3.4019487 2.17942163 6.05272412 2 10 C1.67 10 1.34 10 1 10 C0.67 11.65 0.34 13.3 0 15 C-0.33 15 -0.66 15 -1 15 C-1.02715383 13.25008666 -1.04646551 11.50005055 -1.0625 9.75 C-1.07410156 8.77546875 -1.08570312 7.8009375 -1.09765625 6.796875 C-1.01195577 4.34241322 -0.70706066 2.33831086 0 0 Z " fill="#F5F6F3" transform="translate(31,131)"/>
<path d="M0 0 C0.66 0 1.32 0 2 0 C2.33 1.65 2.66 3.3 3 5 C1.02 5 -0.96 5 -3 5 C-3.33 4.34 -3.66 3.68 -4 3 C-6.01669827 1.86649466 -6.01669827 1.86649466 -8 1 C-4.37471432 0.79859524 -2.13498292 1.14223235 1 3 C0.67 2.01 0.34 1.02 0 0 Z " fill="#D1D4D7" transform="translate(182,179)"/>
<path d="M0 0 C0.99 0.33 1.98 0.66 3 1 C3 3.31 3 5.62 3 8 C1.35 8 -0.3 8 -2 8 C-1.34 7.67 -0.68 7.34 0 7 C0 4.69 0 2.38 0 0 Z " fill="#E9EDE4" transform="translate(18,144)"/>
<path d="M0 0 C0.99 0 1.98 0 3 0 C3.16873478 1.43725871 3.33490737 2.87481838 3.5 4.3125 C3.5928125 5.11300781 3.685625 5.91351563 3.78125 6.73828125 C4 9 4 9 4 12 C3.34 12 2.68 12 2 12 C1.34 8.04 0.68 4.08 0 0 Z " fill="#DFE6D9" transform="translate(33,123)"/>
<path d="M0 0 C0.66 0.33 1.32 0.66 2 1 C2.40729228 3.32156597 2.74438677 5.6568787 3 8 C1 7 1 7 0 4 C-0.33 5.65 -0.66 7.3 -1 9 C-1.33 9 -1.66 9 -2 9 C-2 6.69 -2 4.38 -2 2 C-1.34 2 -0.68 2 0 2 C0 1.34 0 0.68 0 0 Z " fill="#B3D395" transform="translate(41,120)"/>
<path d="M0 0 C0 0.66 0 1.32 0 2 C-1.32 2 -2.64 2 -4 2 C-4.33 3.32 -4.66 4.64 -5 6 C-5 4.35 -5 2.7 -5 1 C-6.32 0.67 -7.64 0.34 -9 0 C-5.52176885 -1.15941038 -3.54104422 -0.70820884 0 0 Z " fill="#8FC35F" transform="translate(44,113)"/>
<path d="M0 0 C0.33 0 0.66 0 1 0 C1 3.3 1 6.6 1 10 C0.01 10 -0.98 10 -2 10 C-2.33 10.66 -2.66 11.32 -3 12 C-3 10.35 -3 8.7 -3 7 C-2.01 7 -1.02 7 0 7 C0 4.69 0 2.38 0 0 Z " fill="#71B039" transform="translate(26,153)"/>
<path d="M0 0 C1.875 0.625 1.875 0.625 4 2 C5.25 5.125 5.25 5.125 6 8 C2.57701423 6.85900474 1.85241234 5.99914379 0 3 C0 2.01 0 1.02 0 0 Z " fill="#94C16B" transform="translate(168,112)"/>
<path d="M0 0 C1.98 0 3.96 0 6 0 C6.33 0.66 6.66 1.32 7 2 C5.68 2 4.36 2 3 2 C3 2.66 3 3.32 3 4 C1.35 4 -0.3 4 -2 4 C-1.34 2.68 -0.68 1.36 0 0 Z " fill="#31435D" transform="translate(155,171)"/>
<path d="M0 0 C0.33 0.66 0.66 1.32 1 2 C-1.76264289 2.59732819 -4.16032769 3 -7 3 C-7.99 2.34 -8.98 1.68 -10 1 C-6.52674819 -0.1577506 -3.63932552 -0.06866652 0 0 Z " fill="#2C3F57" transform="translate(147,171)"/>
<path d="M0 0 C0.33 0 0.66 0 1 0 C1 3.96 1 7.92 1 12 C-1.44576827 8.33134759 -1.23607254 6.32799657 -1 2 C-0.67 1.34 -0.34 0.68 0 0 Z " fill="#C0C4CA" transform="translate(194,133)"/>
<path d="M0 0 C0 0.66 0 1.32 0 2 C-0.639375 2.103125 -1.27875 2.20625 -1.9375 2.3125 C-2.618125 2.539375 -3.29875 2.76625 -4 3 C-4.33 3.99 -4.66 4.98 -5 6 C-5.33 4.35 -5.66 2.7 -6 1 C-4 0 -4 0 0 0 Z " fill="#A8D080" transform="translate(178,130)"/>
<path d="M0 0 C1.68496298 0.96885372 3.35178756 1.96986723 5 3 C5 3.33 5 3.66 5 4 C2.125 4.125 2.125 4.125 -1 4 C-1.66 3.34 -2.32 2.68 -3 2 C-2.01 2 -1.02 2 0 2 C0 1.34 0 0.68 0 0 Z " fill="#1F3654" transform="translate(169,162)"/>
<path d="M0 0 C0.33 0 0.66 0 1 0 C1 4.62 1 9.24 1 14 C0.67 14 0.34 14 0 14 C-1.33257403 4.58997722 -1.33257403 4.58997722 0 0 Z " fill="#F4F5F4" transform="translate(194,77)"/>
<path d="M0 0 C0.33 0 0.66 0 1 0 C1 2.31 1 4.62 1 7 C0.01 6.34 -0.98 5.68 -2 5 C-1.125 1.125 -1.125 1.125 0 0 Z " fill="#BABFC6" transform="translate(194,160)"/>
<path d="" fill="#FFFFFF" transform="translate(0,0)"/>
<path d="" fill="#FFFFFF" transform="translate(0,0)"/>
<path d="" fill="#FFFFFF" transform="translate(0,0)"/>
</svg>
